<?xml version="1.0" encoding="UTF-8" standalone="no"?>
<!-- Created with Inkscape (http://www.inkscape.org/) -->

<svg
   xmlns:dc="http://purl.org/dc/elements/1.1/"
   xmlns:cc="http://creativecommons.org/ns#"
   xmlns:rdf="http://www.w3.org/1999/02/22-rdf-syntax-ns#"
   xmlns:svg="http://www.w3.org/2000/svg"
   xmlns="http://www.w3.org/2000/svg"
   xmlns:sodipodi="http://sodipodi.sourceforge.net/DTD/sodipodi-0.dtd"
   xmlns:inkscape="http://www.inkscape.org/namespaces/inkscape"
   width="210mm"
   height="297mm"
   viewBox="0 0 210 297"
   version="1.1"
   id="svg8"
   inkscape:version="0.92.2 (5c3e80d, 2017-08-06)"
   sodipodi:docname="rusia.svg">
  <defs
     id="defs2" />
  <sodipodi:namedview
     id="base"
     pagecolor="#ffffff"
     bordercolor="#666666"
     borderopacity="1.0"
     inkscape:pageopacity="0.0"
     inkscape:pageshadow="2"
     inkscape:zoom="1.4250685"
     inkscape:cx="464.74317"
     inkscape:cy="484.11593"
     inkscape:document-units="mm"
     inkscape:current-layer="layer1"
     showgrid="false"
     inkscape:window-width="1366"
     inkscape:window-height="705"
     inkscape:window-x="-8"
     inkscape:window-y="-8"
     inkscape:window-maximized="1" />
  <metadata
     id="metadata5">
    <rdf:RDF>
      <cc:Work
         rdf:about="">
        <dc:format>image/svg+xml</dc:format>
        <dc:type
           rdf:resource="http://purl.org/dc/dcmitype/StillImage" />
        <dc:title></dc:title>
      </cc:Work>
    </rdf:RDF>
  </metadata>
  <g
     inkscape:label="Capa 1"
     inkscape:groupmode="layer"
     id="layer1">
    <path
       style="opacity:1;fill:#ffd42a;fill-opacity:1;fill-rule:nonzero;stroke:none;stroke-width:0.66500002;stroke-linecap:butt;stroke-linejoin:miter;stroke-miterlimit:4;stroke-dasharray:none;stroke-dashoffset:0;stroke-opacity:1;paint-order:stroke fill markers"
       d="m 102.55512,168.98087 c -5.710322,-0.70836 -9.65923,-2.0045 -11.594524,-3.80566 l -1.288282,-1.19899 v -2.96315 c 0,-2.49815 0.293018,-4.11146 1.867218,-10.28059 2.048228,-8.0268 3.110685,-13.29384 2.812723,-13.94386 -0.139143,-0.30355 -0.765362,-0.41959 -2.264367,-0.41959 -1.139618,0 -2.072032,-0.11162 -2.072032,-0.24805 0,-0.13642 0.483542,-0.75115 1.074537,-1.36606 1.284154,-1.33612 2.017338,-2.69113 2.017338,-3.72829 0,-0.65213 -0.113322,-0.73558 -0.802265,-0.59083 -0.441244,0.0927 -1.910273,0.25477 -3.264504,0.36014 l -2.46224,0.19157 1.049689,-1.93801 c 0.87509,-1.61566 1.052622,-2.3127 1.067335,-4.19068 0.02133,-2.72363 -0.397999,-3.87469 -3.539224,-9.71493 -3.332711,-6.19625 -3.890102,-7.97987 -3.882325,-12.42314 0.0073,-4.167587 0.526568,-6.120768 2.561399,-9.634343 2.407899,-4.157758 5.896826,-7.038284 11.161612,-9.215252 4.164649,-1.722065 6.363252,-2.144639 11.158302,-2.144639 4.61372,0 7.61702,0.573799 11.68722,2.23292 2.02228,0.824332 3.28123,1.640616 5.85216,3.794457 3.59815,3.014401 5.1915,5.180231 6.5196,8.862035 0.67738,1.877833 0.7384,2.553751 0.59724,6.614622 -0.13078,3.76184 -0.2895,4.83261 -0.9431,6.36235 -0.92444,2.16363 -5.5279,9.82436 -8.48619,14.12207 -4.0382,5.86659 -4.57034,6.93894 -4.57034,9.21006 0,1.28842 0.19828,2.35559 0.54065,2.90982 0.29735,0.48137 0.47606,0.92929 0.39713,0.99536 -0.0789,0.0661 -0.80544,-0.0754 -1.61446,-0.31431 -0.80903,-0.23896 -1.6043,-0.43446 -1.76728,-0.43446 -0.16298,0 0.75789,1.71659 2.04637,3.81465 4.46889,7.27675 6.8522,13.51988 7.16213,18.76133 0.2346,3.96759 -0.12408,5.15592 -2.04407,6.77206 -2.73444,2.30169 -6.87845,3.37007 -13.82432,3.56408 -2.26738,0.0633 -4.58628,0.0576 -5.15313,-0.0127 z m 10.15963,-2.00437 c 4.39087,-0.69729 7.21032,-2.05596 8.25234,-3.97674 1.83262,-3.37812 -0.15158,-11.44057 -4.82858,-19.6201 -2.32483,-4.06586 -4.8359,-7.33352 -8.26044,-10.74933 -3.87882,-3.86893 -6.82839,-7.76285 -8.016691,-10.58334 -0.92226,-2.18905 -1.05446,-2.88518 -1.056617,-5.56395 l -0.0023,-3.06185 -1.315726,0.9428 c -0.72365,0.51854 -1.998869,1.10292 -2.833824,1.29862 -1.502061,0.35206 -5.035427,0.26936 -6.641254,-0.15544 -0.801589,-0.21205 -0.801487,-0.21135 0.21822,1.48139 2.508717,4.16455 3.27083,8.94946 1.817172,11.40906 -0.38409,0.64989 -0.628945,1.23971 -0.544117,1.31072 0.316866,0.26526 3.375523,-0.91815 4.489699,-1.73708 0.645805,-0.47468 1.33128,-0.75905 1.553081,-0.6443 0.666681,0.34493 0.155285,3.61318 -0.854206,5.45909 -0.498529,0.91158 -0.825018,1.72556 -0.725532,1.80884 0.09948,0.0833 1.031955,-0.0732 2.072159,-0.34765 1.818543,-0.47989 4.270666,-2.06418 4.728216,-3.05487 0.23943,-0.5184 1.42255,0.57991 4.61104,4.2805 3.92769,4.5585 6.86148,9.93085 8.21042,15.03487 0.79599,3.01179 0.82442,8.82297 0.0534,10.90688 -0.69371,1.87489 -2.80643,4.04233 -4.74889,4.87191 -0.71996,0.30748 -1.40593,0.69032 -1.52437,0.85075 -0.31953,0.43281 2.05957,0.36127 5.347,-0.16078 z m -7.55953,-0.87264 c 2.51165,-0.62233 5.06481,-2.74907 6.17743,-5.1457 0.67395,-1.4517 0.8043,-2.27326 0.82136,-5.17666 0.0219,-3.72331 -0.34523,-6.29468 -0.86062,-6.02803 -0.17682,0.0915 -0.32149,0.53332 -0.32149,0.98185 0,1.30543 -1.34684,4.64035 -2.47546,6.12949 -3.16087,4.17058 -10.576901,7.60124 -15.060677,6.96708 -1.465809,-0.20731 -1.710465,-0.006 -0.75746,0.6234 2.884382,1.90483 8.466197,2.64235 12.476917,1.64857 z m -6.818694,-4.8334 c 3.814634,-1.1271 7.352234,-3.68608 9.575984,-6.92692 0.97898,-1.42673 2.29935,-5.47739 1.89562,-5.81537 -0.11572,-0.0969 -0.25212,-0.12221 -0.3031,-0.0563 -4.42327,5.71776 -9.762127,9.15458 -15.710216,10.11324 -2.051333,0.33062 -2.241815,0.42381 -2.341092,1.14528 -0.07409,0.53842 0.164062,1.0132 0.757353,1.50986 1.125004,0.94179 3.008804,0.95108 6.125451,0.0302 z m -4.332077,-6.14759 c 1.169469,-1.62218 1.520756,-3.0927 1.483927,-6.21182 -0.03537,-2.9955 -0.463941,-3.63438 -0.985915,-1.46972 -0.22885,0.94905 -0.868178,3.40111 -1.420725,5.44902 -1.170866,4.33957 -1.116216,3.97567 -0.575204,3.83014 0.236185,-0.0635 0.910248,-0.78246 1.497917,-1.59762 z m 10.753811,-4.61297 c 1.6671,-0.93729 3.23058,-2.77202 3.99243,-4.68506 0.43665,-1.09643 0.45403,-1.47375 0.0994,-2.15694 -0.6567,-1.26508 -3.56138,-5.17135 -5.69071,-7.65297 l -1.9078,-2.22344 -1.374107,0.64169 c -2.160241,1.0088 -2.432485,1.84516 -2.455617,7.5439 -0.01656,4.07918 0.08445,5.11535 0.609767,6.25513 0.70352,1.52642 1.474478,1.77049 1.816848,0.57518 0.470849,-1.64389 1.130269,-2.37263 2.146929,-2.37263 2.11582,0 2.60265,1.65517 1.03048,3.5035 -0.6357,0.74736 -0.62964,1.38556 0.0131,1.38556 0.14936,0 0.92302,-0.36626 1.71924,-0.81392 z m 5.19843,-23.73611 c -0.45648,-1.15788 -0.0398,-2.29856 1.01174,-2.76967 1.58002,-0.70789 2.7518,0.53436 2.7518,2.91728 0,0.76495 0.15087,1.10746 0.48783,1.10746 1.37161,0 8.53423,-8.34504 10.53897,-12.27876 0.97749,-1.91802 1.14577,-2.58669 1.15644,-4.59518 0.0103,-1.94305 -0.1119,-2.49148 -0.70503,-3.16352 -2.43117,-2.75463 -8.73419,-3.15571 -14.03252,-0.89292 -6.09225,2.60186 -9.8024,7.47646 -9.38727,12.33351 0.31088,3.63732 2.96899,6.94497 6.89165,8.57569 1.66742,0.69317 1.94219,0.42961 1.28639,-1.23389 z M 93.991911,112.42698 c 4.813953,-2.72875 6.505259,-11.09416 3.38694,-16.752244 -1.441882,-2.616244 -4.103692,-4.457678 -6.443617,-4.457678 -3.074809,0 -5.90249,2.041582 -7.507471,5.420382 -0.668697,1.407741 -0.773687,2.165279 -0.783318,5.65192 -0.01267,4.58679 0.457748,6.02282 2.817037,8.59942 2.454609,2.6807 5.534975,3.23615 8.530429,1.5382 z m 6.673739,-0.63011 c 0,-0.56228 -0.665916,-0.86871 -1.099336,-0.50588 -0.193812,0.16225 -0.248514,0.43569 -0.121563,0.60765 0.336744,0.45612 1.220899,0.38243 1.220899,-0.10177 z m 1.03062,-1.90329 c 0,-0.14884 -0.23189,-0.27062 -0.51531,-0.27062 -0.53126,0 -0.68252,0.33934 -0.29562,0.66323 0.27446,0.22976 0.81093,-0.03 0.81093,-0.39261 z m 27.44665,-2.80121 c 0.76082,-3.04953 0.23268,-9.845025 -0.88256,-11.355639 -0.12122,-0.164187 -0.42397,0.367415 -0.67279,1.181336 -0.78411,2.564907 -2.2329,4.011303 -5.25998,5.251263 l -1.18357,0.48483 1.72068,0.72993 c 2.13733,0.90668 3.96562,2.56855 4.77316,4.33869 0.33915,0.74343 0.73098,1.24862 0.87074,1.12265 0.13975,-0.12598 0.42519,-0.91485 0.63432,-1.75306 z m -24.47396,-0.48772 c 1.83724,-1.25286 5.94178,-3.07752 7.80209,-3.46839 1.45769,-0.30627 1.36291,-0.6166 -0.33638,-1.10131 -2.24782,-0.64117 -5.69439,-2.306414 -7.93337,-3.833088 -1.90304,-1.297602 -1.91314,-1.300493 -1.67264,-0.478345 0.42843,1.464543 0.61259,7.690383 0.26479,8.951623 -0.18539,0.67224 -0.26577,1.22226 -0.17864,1.22226 0.0871,0 1.0115,-0.58173 2.05415,-1.29275 z m 15.06325,-3.8839 c 0,-0.23294 -0.27054,-0.46713 -0.6012,-0.52044 -0.42182,-0.068 -0.6012,0.0873 -0.6012,0.52044 0,0.43315 0.17938,0.58843 0.6012,0.52043 0.33066,-0.0533 0.6012,-0.2875 0.6012,-0.52043 z m -2.57657,0 c 0,-0.15818 -0.15459,-0.2876 -0.34354,-0.2876 -0.18894,0 -0.34354,0.12942 -0.34354,0.2876 0,0.15817 0.1546,0.28759 0.34354,0.28759 0.18895,0 0.34354,-0.12942 0.34354,-0.28759 z m 5.7254,-3.684548 c 2.22077,-0.956386 3.03492,-2.128154 3.03492,-4.368039 0,-2.324013 -0.97357,-4.071665 -3.46048,-6.211888 -3.73972,-3.218393 -8.40818,-5.007799 -13.20843,-5.06275 -3.16114,-0.03619 -4.69612,0.36021 -6.09442,1.57382 -2.19449,1.904635 -2.35705,3.802163 -0.58043,6.77506 2.00747,3.359197 6.85782,6.489501 11.87762,7.66556 2.57665,0.603665 6.57568,0.427333 8.43122,-0.371763 z m -21.52831,-3.792855 c 0,-0.158174 -0.23189,-0.287592 -0.51531,-0.287592 -0.28343,0 -0.51531,0.129418 -0.51531,0.287592 0,0.158177 0.23188,0.287593 0.51531,0.287593 0.28342,0 0.51531,-0.129416 0.51531,-0.287593 z m -1.1839,-1.463019 c 0.12695,-0.171958 0.0524,-0.462063 -0.1658,-0.644678 -0.299798,-0.250975 -0.471456,-0.230659 -0.703189,0.08323 -0.327434,0.443516 -0.162322,0.874104 0.33518,0.874104 0.166645,0 0.406859,-0.140694 0.533809,-0.312652 z m -1.769123,-3.389763 c -0.339598,-1.777871 0.633591,-4.047567 2.467763,-5.755366 1.8716,-1.742645 1.61985,-1.803525 -2.410086,-0.582808 -3.228827,0.978053 -6.239527,2.487734 -8.611787,4.318283 -1.74321,1.345144 -1.966701,1.815217 -0.666231,1.401304 2.11114,-0.671933 5.978739,-0.117866 8.000691,1.146168 1.289099,0.805887 1.460225,0.731864 1.21965,-0.527581 z"
       id="path828"
       inkscape:connector-curvature="0" />
    <path
       style="opacity:1;fill:#ff2a2a;fill-opacity:1;fill-rule:nonzero;stroke:none;stroke-width:0.66500002;stroke-linecap:butt;stroke-linejoin:miter;stroke-miterlimit:4;stroke-dasharray:none;stroke-dashoffset:0;stroke-opacity:1;paint-order:stroke fill markers"
       d="m 46.388512,190.36446 c 0.0013,-1.93765 0.102512,-4.41018 0.224822,-5.49451 l 0.222384,-1.97151 5.132524,0.10479 c 5.12799,0.10471 5.133252,0.10551 5.958923,0.90908 1.362766,1.32629 1.124354,2.4175 -0.891307,4.07951 -0.944737,0.77899 -1.717707,1.5181 -1.717707,1.64246 0,0.12437 0.723151,1.00568 1.607,1.95846 1.10566,1.1919 1.496276,1.82503 1.252087,2.02945 -0.657812,0.55068 -2.177777,-0.0788 -3.694175,-1.52999 -1.421064,-1.35992 -1.577607,-1.43102 -2.746569,-1.24744 -2.641987,0.41492 -2.278945,-0.65225 0.821497,-2.41482 2.266332,-1.28839 3.103702,-2.12039 3.103702,-3.08381 0,-1.17972 -2.835474,-2.07812 -5.324897,-1.68716 l -1.202394,0.18883 v 4.56492 c 0,2.51071 -0.09384,4.76963 -0.208527,5.01983 -0.133453,0.29114 -0.628169,0.45491 -1.374167,0.45491 h -1.165641 z"
       id="path830"
       inkscape:connector-curvature="0" />
    <path
       style="opacity:1;fill:#ff2a2a;fill-opacity:1;fill-rule:nonzero;stroke:none;stroke-width:0.66500002;stroke-linecap:butt;stroke-linejoin:miter;stroke-miterlimit:4;stroke-dasharray:none;stroke-dashoffset:0;stroke-opacity:1;paint-order:stroke fill markers"
       d="m 63.73492,193.75988 c -1.615328,-0.49396 -3.180312,-1.93041 -3.449748,-3.16642 -0.187448,-0.8599 0.673773,-6.84413 1.060328,-7.36773 0.108323,-0.14672 0.697504,-0.26677 1.309291,-0.26677 h 1.112341 l -0.424941,3.37921 c -0.494917,3.93566 -0.357476,4.97348 0.785337,5.93018 1.189859,0.99607 2.35322,1.16318 3.845621,0.55239 2.145928,-0.87825 2.397625,-2.23804 1.545939,-8.35192 l -0.21033,-1.50986 h 1.218656 1.218656 l 0.442466,2.08504 c 0.243359,1.14678 0.450567,3.01336 0.460467,4.14797 0.01993,2.28466 -0.546415,3.26012 -2.422703,4.17276 -1.448288,0.70446 -4.810555,0.90913 -6.49138,0.39515 z"
       id="path832"
       inkscape:connector-curvature="0" />
    <path
       style="opacity:1;fill:#ff2a2a;fill-opacity:1;fill-rule:nonzero;stroke:none;stroke-width:0.66500002;stroke-linecap:butt;stroke-linejoin:miter;stroke-miterlimit:4;stroke-dasharray:none;stroke-dashoffset:0;stroke-opacity:1;paint-order:stroke fill markers"
       d="m 76.993383,193.84156 c -2.348817,-0.23125 -3.178593,-0.5986 -2.546797,-1.1275 0.265204,-0.22202 0.750334,-0.22247 1.700532,-0.002 0.731207,0.16996 2.129864,0.30974 3.108128,0.31063 1.517322,10e-4 1.884163,-0.11068 2.496716,-0.76259 1.001338,-1.06568 0.488856,-1.60689 -3.099763,-3.27357 -3.234573,-1.50224 -4.300643,-2.57904 -3.934604,-3.97419 0.393698,-1.50057 1.640264,-2.16647 4.290289,-2.29182 2.616545,-0.12377 4.824223,0.33596 4.824223,1.00461 0,0.35704 -0.259923,0.39152 -1.460053,0.19371 -2.453134,-0.40434 -4.636705,-0.29357 -5.3091,0.26932 -0.936297,0.78381 -0.284207,1.3472 3.237009,2.7967 4.72855,1.9465 5.760638,3.02137 4.782623,4.98088 -0.827107,1.65716 -3.652572,2.31222 -8.089203,1.87543 z"
       id="path834"
       inkscape:connector-curvature="0" />
    <path
       style="opacity:1;fill:#ff2a2a;fill-opacity:1;fill-rule:nonzero;stroke:none;stroke-width:0.66500002;stroke-linecap:butt;stroke-linejoin:miter;stroke-miterlimit:4;stroke-dasharray:none;stroke-dashoffset:0;stroke-opacity:1;paint-order:stroke fill markers"
       d="m 87.636535,193.63517 c -0.458362,-0.10723 -0.896635,-0.35381 -0.973941,-0.54795 -0.106208,-0.26673 0.722022,-0.33507 3.389214,-0.27966 3.508106,0.0729 3.532988,0.0686 4.05442,-0.69789 0.484025,-0.71151 0.47233,-0.81972 -0.151039,-1.39741 -0.371628,-0.34441 -1.79609,-1.14126 -3.165468,-1.77079 -4.113574,-1.8911 -4.905275,-3.44424 -2.697699,-5.29229 1.104303,-0.92445 1.298349,-0.97781 3.555925,-0.97781 2.725518,0 4.551658,0.42955 4.551658,1.07065 0,0.32984 -0.244644,0.39825 -0.982455,0.27472 -3.147511,-0.52698 -4.516247,-0.54763 -5.367038,-0.081 -0.475686,0.26092 -0.864882,0.71537 -0.864882,1.00988 0,0.64571 0.794815,1.09231 3.920076,2.20267 3.116018,1.10707 4.668467,2.31003 4.668467,3.61749 0,1.17444 -0.716131,2.10795 -2.065046,2.6919 -1.035282,0.44817 -6.215765,0.56495 -7.872192,0.17745 z"
       id="path836"
       inkscape:connector-curvature="0" />
    <path
       style="opacity:1;fill:#ff2a2a;fill-opacity:1;fill-rule:nonzero;stroke:none;stroke-width:0.66500002;stroke-linecap:butt;stroke-linejoin:miter;stroke-miterlimit:4;stroke-dasharray:none;stroke-dashoffset:0;stroke-opacity:1;paint-order:stroke fill markers"
       d="m 99.978563,188.42321 v -5.46425 h 1.202397 1.20239 v 5.46425 5.46425 h -1.20239 -1.202397 z"
       id="path838"
       inkscape:connector-curvature="0" />
    <path
       style="opacity:1;fill:#ff2a2a;fill-opacity:1;fill-rule:nonzero;stroke:none;stroke-width:0.66500002;stroke-linecap:butt;stroke-linejoin:miter;stroke-miterlimit:4;stroke-dasharray:none;stroke-dashoffset:0;stroke-opacity:1;paint-order:stroke fill markers"
       d="m 105.12533,193.59455 c -0.60704,-0.50818 -0.70189,-0.81861 -0.51183,-1.67528 0.32539,-1.46676 2.23795,-4.42027 4.40553,-6.80337 1.67616,-1.84282 1.94802,-2.02044 3.21326,-2.09941 l 1.38217,-0.0863 1.30676,3.10599 c 0.71871,1.70829 1.82257,4.11632 2.453,5.35117 l 1.14625,2.24518 -1.43736,-0.0882 -1.43737,-0.0882 -2.03058,-4.24199 c -1.12006,-2.33986 -2.22589,-4.24198 -2.46614,-4.24198 -0.49726,0 -2.69376,3.37501 -3.18598,4.89538 -0.19115,0.59044 -0.20375,1.29388 -0.0302,1.68662 0.33415,0.75619 0.75048,0.7399 3.45619,-0.1352 3.0249,-0.97834 2.45521,0.24874 -0.74012,1.59419 -1.05052,0.44235 -2.55543,0.89447 -3.34425,1.00473 -1.20509,0.16845 -1.55327,0.10082 -2.17933,-0.42328 z"
       id="path840"
       inkscape:connector-curvature="0" />
    <path
       style="opacity:1;fill:#ff2a2a;fill-opacity:1;fill-rule:nonzero;stroke:none;stroke-width:0.66500002;stroke-linecap:butt;stroke-linejoin:miter;stroke-miterlimit:4;stroke-dasharray:none;stroke-dashoffset:0;stroke-opacity:1;paint-order:stroke fill markers"
       d="m 122.17142,193.6465 c -0.0978,-0.13254 1.3046,-1.38671 3.11654,-2.78705 1.81194,-1.40033 3.58283,-2.94196 3.9353,-3.42583 0.8303,-1.13982 0.81674,-2.31642 -0.0349,-3.02938 -1.95794,-1.63907 -5.16186,-0.56418 -5.16186,1.73177 0,0.30891 -0.23189,0.56165 -0.51532,0.56165 -0.69429,0 -0.69355,-1.95973 0.001,-2.78992 0.74078,-0.88537 2.68537,-1.33399 5.0156,-1.15711 2.58677,0.19636 3.93953,0.98357 4.46004,2.59543 0.34797,1.07754 0.30333,1.34494 -0.4139,2.47932 -0.70066,1.10818 -3.30394,3.04662 -5.42777,4.04161 -0.87453,0.40971 -0.35149,0.54139 2.98874,0.75248 2.1765,0.13755 3.16716,0.31256 3.16716,0.55951 0,0.19764 -0.24453,0.43791 -0.54341,0.53392 -0.83233,0.26738 -10.38509,0.20746 -10.58727,-0.0664 z"
       id="path842"
       inkscape:connector-curvature="0" />
    <path
       style="opacity:1;fill:#ff2a2a;fill-opacity:1;fill-rule:nonzero;stroke:none;stroke-width:0.66500002;stroke-linecap:butt;stroke-linejoin:miter;stroke-miterlimit:4;stroke-dasharray:none;stroke-dashoffset:0;stroke-opacity:1;paint-order:stroke fill markers"
       d="m 139.14231,193.90753 c -1.69176,-0.28303 -2.58155,-0.74177 -3.47407,-1.79106 -0.64959,-0.7637 -0.76526,-1.24876 -0.72192,-3.02746 0.0284,-1.16493 0.21331,-2.62078 0.41095,-3.23521 0.74413,-2.31342 3.58562,-3.73288 6.69191,-3.34292 3.52832,0.44293 5.14375,2.44535 5.15792,6.39352 0.009,2.59938 -0.50213,3.53441 -2.43226,4.4466 -1.1884,0.56163 -3.96325,0.83581 -5.63253,0.55653 z m 3.40409,-1.30067 c 1.28737,-0.55731 1.87386,-1.85432 1.83398,-4.05586 -0.0607,-3.34806 -1.89224,-5.50607 -4.11725,-4.85102 -1.45019,0.42695 -2.24871,1.8983 -2.42664,4.47135 -0.17962,2.59758 0.26134,3.80805 1.6109,4.42207 1.15721,0.5265 1.90636,0.52976 3.09901,0.0135 z"
       id="path844"
       inkscape:connector-curvature="0" />
    <path
       style="opacity:1;fill:#ff2a2a;fill-opacity:1;fill-rule:nonzero;stroke:none;stroke-width:0.66500002;stroke-linecap:butt;stroke-linejoin:miter;stroke-miterlimit:4;stroke-dasharray:none;stroke-dashoffset:0;stroke-opacity:1;paint-order:stroke fill markers"
       d="m 150.61697,193.6652 c -0.22915,-0.12693 -0.46292,-1.90455 -0.5948,-4.52295 -0.18162,-3.60595 -0.31395,-4.373 -0.80641,-4.67445 -0.72473,-0.44363 -0.38241,-0.74545 1.38094,-1.21755 0.96395,-0.25807 1.42233,-0.26763 1.69971,-0.0354 0.37826,0.31665 0.6079,9.89661 0.24402,10.17987 -0.38459,0.29939 -1.57029,0.46614 -1.92346,0.2705 z"
       id="path846"
       inkscape:connector-curvature="0" />
    <path
       style="opacity:1;fill:#ff2a2a;fill-opacity:1;fill-rule:nonzero;stroke:none;stroke-width:0.66500002;stroke-linecap:butt;stroke-linejoin:miter;stroke-miterlimit:4;stroke-dasharray:none;stroke-dashoffset:0;stroke-opacity:1;paint-order:stroke fill markers"
       d="m 157.66722,193.72947 c -2.07494,-0.53517 -2.87815,-1.31083 -2.87815,-2.77944 0,-0.99716 0.19331,-1.30582 1.33547,-2.13235 1.23848,-0.89622 1.29579,-1.00312 0.78907,-1.47184 -1.05266,-0.97375 -1.32646,-2.04159 -0.75901,-2.96021 0.71322,-1.15461 2.17462,-1.71426 4.47636,-1.71426 1.74923,0 2.05623,0.0966 3.10893,0.97781 1.40609,1.17709 1.49349,2.10538 0.30919,3.28362 -1.0986,1.09298 -1.08049,1.26788 0.17964,1.73482 2.09105,0.77485 2.44788,2.80512 0.73111,4.15993 -1.63731,1.2921 -4.43722,1.63839 -7.29261,0.90192 z m 4.41594,-0.86489 c 1.14021,-0.66856 1.06525,-2.65909 -0.14549,-3.86363 l -0.90901,-0.90436 0.73724,-1.09811 c 0.87598,-1.30476 0.9232,-1.96373 0.20245,-2.82516 -0.59628,-0.71267 -2.46833,-0.88603 -3.17546,-0.29406 -0.68554,0.57389 -0.50949,2.65558 0.27483,3.24979 0.81992,0.62116 0.8872,1.24793 0.15907,1.48184 -0.68248,0.21923 -1.53323,1.60165 -1.53323,2.49138 0,0.38197 0.32041,1.03548 0.71201,1.45225 0.82938,0.88265 2.46577,1.02062 3.67759,0.31006 z"
       id="path850"
       inkscape:connector-curvature="0" />
    <path
       style="opacity:1;fill:#ff2a2a;fill-opacity:1;fill-rule:nonzero;stroke:none;stroke-width:0.66500002;stroke-linecap:butt;stroke-linejoin:miter;stroke-miterlimit:4;stroke-dasharray:none;stroke-dashoffset:0;stroke-opacity:1;paint-order:stroke fill markers"
       d="m 72.495233,176.49379 v -2.47889 l 1.893429,0.0862 c 2.154929,0.0982 2.589075,0.53038 0.940789,0.9366 -1.263886,0.31149 -1.448017,0.71268 -0.429428,0.93567 0.869844,0.19042 0.881295,0.70621 0.02562,1.15357 -0.363812,0.1902 -0.711647,0.64193 -0.77297,1.00385 -0.0723,0.42672 -0.383215,0.69034 -0.88446,0.74994 -0.750304,0.0892 -0.772969,0.0192 -0.772969,-2.38699 z"
       id="path852"
       inkscape:connector-curvature="0" />
    <path
       style="opacity:1;fill:#ff2a2a;fill-opacity:1;fill-rule:nonzero;stroke:none;stroke-width:0.66500002;stroke-linecap:butt;stroke-linejoin:miter;stroke-miterlimit:4;stroke-dasharray:none;stroke-dashoffset:0;stroke-opacity:1;paint-order:stroke fill markers"
       d="m 77.648356,176.48814 c 0,-2.25281 0.05389,-2.44454 0.687084,-2.44454 0.633194,0 0.687083,0.19173 0.687083,2.44454 0,2.2528 -0.05389,2.44453 -0.687083,2.44453 -0.633194,0 -0.687084,-0.19173 -0.687084,-2.44453 z"
       id="path854"
       inkscape:connector-curvature="0" />
    <path
       style="opacity:1;fill:#ff2a2a;fill-opacity:1;fill-rule:nonzero;stroke:none;stroke-width:0.66500002;stroke-linecap:butt;stroke-linejoin:miter;stroke-miterlimit:4;stroke-dasharray:none;stroke-dashoffset:0;stroke-opacity:1;paint-order:stroke fill markers"
       d="m 80.74023,176.48814 v -2.44454 h 2.061252 c 2.341295,0 2.669529,0.39177 0.858854,1.02511 -1.215388,0.42512 -1.618395,0.98804 -0.707359,0.98804 0.851577,0 1.009123,0.63345 0.278042,1.11793 -0.384949,0.25511 -0.804085,0.75501 -0.931414,1.11091 -0.136302,0.38098 -0.504541,0.64708 -0.895441,0.64708 -0.604142,0 -0.663934,-0.22014 -0.663934,-2.44453 z"
       id="path856"
       inkscape:connector-curvature="0" />
    <path
       style="opacity:1;fill:#ff2a2a;fill-opacity:1;fill-rule:nonzero;stroke:none;stroke-width:0.66500002;stroke-linecap:butt;stroke-linejoin:miter;stroke-miterlimit:4;stroke-dasharray:none;stroke-dashoffset:0;stroke-opacity:1;paint-order:stroke fill markers"
       d="m 84.624028,178.13436 c 0.104899,-0.43907 0.525134,-1.54654 0.933861,-2.46105 0.672308,-1.50426 0.830008,-1.6543 1.65464,-1.57432 0.79419,0.077 1.040583,0.3753 1.914391,2.31748 0.551589,1.226 0.900719,2.31461 0.775847,2.41914 -0.124872,0.10454 -0.859218,0.0154 -1.631881,-0.19806 -1.096959,-0.30307 -1.548049,-0.31326 -2.058295,-0.0465 -1.176925,0.6153 -1.801754,0.43568 -1.588563,-0.45668 z m 2.987038,-1.5194 c 0,-0.6 -0.505403,-0.74938 -0.869024,-0.25685 -0.311625,0.42211 0.103536,1.21111 0.523053,0.99406 0.190284,-0.0985 0.345971,-0.43019 0.345971,-0.73721 z"
       id="path858"
       inkscape:connector-curvature="0" />
    <path
       style="opacity:1;fill:#ff2a2a;fill-opacity:1;fill-rule:nonzero;stroke:none;stroke-width:0.66500002;stroke-linecap:butt;stroke-linejoin:miter;stroke-miterlimit:4;stroke-dasharray:none;stroke-dashoffset:0;stroke-opacity:1;paint-order:stroke fill markers"
       d="m 92.430871,177.87154 c -0.207376,-0.6027 -0.472517,-1.7238 -0.589199,-2.49135 -0.191793,-1.26161 -0.149843,-1.38549 0.437123,-1.29086 0.357101,0.0576 0.695718,0.36202 0.75248,0.67656 0.391063,2.16694 0.685191,2.27559 1.289857,0.47644 0.283961,-0.8449 0.52116,-1.05493 1.191389,-1.05493 0.670232,0 0.907431,0.21003 1.19139,1.05493 0.528665,1.57301 0.796326,1.60119 1.238716,0.13042 0.425299,-1.41394 1.081481,-1.70956 1.688182,-0.76055 0.362096,0.56639 0.366126,0.56639 1.042711,0 1.46202,-1.22392 4.13542,-0.5227 4.95916,1.30075 l 0.25984,0.57519 0.28252,-0.57519 c 0.15539,-0.31635 0.29339,-0.86637 0.30667,-1.22226 0.021,-0.56163 0.20859,-0.64709 1.4209,-0.64709 2.23469,0 2.73005,0.36462 2.64883,1.94972 -0.0383,0.74668 0.0575,1.71349 0.21269,2.14847 0.237,0.66408 0.17989,0.79059 -0.35619,0.78906 -0.35209,-0.001 -0.90825,-0.39867 -1.24002,-0.88663 -0.7012,-1.03135 -1.41328,-0.97698 -1.56837,0.11975 -0.13231,0.9356 -1.08361,1.0391 -1.11784,0.12162 -0.0133,-0.3559 -0.15085,-0.90592 -0.30571,-1.22227 -0.2647,-0.54074 -0.3031,-0.52956 -0.64125,0.18667 -0.78765,1.6683 -3.44533,2.24503 -4.77213,1.0356 -0.39043,-0.3559 -0.826835,-1.10004 -0.969786,-1.65366 l -0.259907,-1.00657 -0.55015,1.3003 c -0.729959,1.72528 -0.980332,2.00701 -1.783604,2.00701 -0.69143,0 -0.786782,-0.12528 -1.149191,-1.50986 -0.289448,-1.10584 -0.758251,-0.98497 -1.11554,0.28759 -0.245325,0.87378 -0.475862,1.09541 -1.214657,1.16771 -0.794125,0.0777 -0.960548,-0.0523 -1.288914,-1.00657 z m 11.346439,-0.56419 c 0.68559,-1.50956 -0.66173,-2.98012 -1.92577,-2.10191 -0.51164,0.35547 -0.66153,1.59966 -0.29028,2.40955 0.35077,0.76522 1.82152,0.56105 2.21605,-0.30764 z m 5.30511,-1.82578 c 0,-0.23294 -0.27054,-0.46713 -0.6012,-0.52044 -0.42182,-0.068 -0.6012,0.0873 -0.6012,0.52044 0,0.43315 0.17938,0.58844 0.6012,0.52043 0.33066,-0.0533 0.6012,-0.2875 0.6012,-0.52043 z"
       id="path860"
       inkscape:connector-curvature="0" />
    <path
       style="opacity:1;fill:#ff2a2a;fill-opacity:1;fill-rule:nonzero;stroke:none;stroke-width:0.66500002;stroke-linecap:butt;stroke-linejoin:miter;stroke-miterlimit:4;stroke-dasharray:none;stroke-dashoffset:0;stroke-opacity:1;paint-order:stroke fill markers"
       d="m 113.40381,176.75176 c 0.0165,-0.33502 0.0979,-0.40317 0.20755,-0.17375 0.0992,0.20761 0.087,0.45565 -0.0271,0.55122 -0.11415,0.0956 -0.19535,-0.0743 -0.18043,-0.37747 z"
       id="path862"
       inkscape:connector-curvature="0" />
    <path
       style="opacity:1;fill:#ff2a2a;fill-opacity:1;fill-rule:nonzero;stroke:none;stroke-width:0.66500002;stroke-linecap:butt;stroke-linejoin:miter;stroke-miterlimit:4;stroke-dasharray:none;stroke-dashoffset:0;stroke-opacity:1;paint-order:stroke fill markers"
       d="m 111.95123,177.7104 c -0.0663,-0.67224 -0.0725,-1.78026 -0.0138,-2.46226 0.0845,-0.98263 0.22715,-1.22087 0.68709,-1.14779 0.45157,0.0717 0.61853,0.50659 0.75218,1.95898 0.1713,1.86173 0.17478,1.86701 1.28828,1.95689 0.69158,0.0558 1.11651,0.24736 1.11651,0.50329 0,0.30814 -0.47149,0.41316 -1.85489,0.41316 h -1.85489 z"
       id="path864"
       inkscape:connector-curvature="0" />
    <path
       style="opacity:1;fill:#ff2a2a;fill-opacity:1;fill-rule:nonzero;stroke:none;stroke-width:0.66500002;stroke-linecap:butt;stroke-linejoin:miter;stroke-miterlimit:4;stroke-dasharray:none;stroke-dashoffset:0;stroke-opacity:1;paint-order:stroke fill markers"
       d="m 116.6276,178.2736 c -0.10868,-0.36248 -0.15027,-1.43017 -0.0924,-2.37263 l 0.10516,-1.71357 1.5074,-0.0904 c 2.11934,-0.12706 3.36359,0.37698 3.82599,1.54988 0.73781,1.8715 -0.84051,3.2732 -3.69502,3.28152 -1.23075,0.004 -1.48379,-0.0968 -1.6511,-0.65483 z m 3.33521,-0.67967 c 0.81985,-0.62111 0.79967,-1.60576 -0.046,-2.24647 -1.05291,-0.79768 -1.7305,-0.37335 -1.7305,1.08372 0,1.73486 0.54798,2.09352 1.77654,1.16275 z"
       id="path868"
       inkscape:connector-curvature="0" />
    <path
       style="opacity:1;fill:#ff2a2a;fill-opacity:1;fill-rule:nonzero;stroke:none;stroke-width:0.66500002;stroke-linecap:butt;stroke-linejoin:miter;stroke-miterlimit:4;stroke-dasharray:none;stroke-dashoffset:0;stroke-opacity:1;paint-order:stroke fill markers"
       d="m 125.20002,178.26587 c -2.19869,-1.58323 -0.62957,-4.35156 2.36092,-4.16527 1.75435,0.10928 2.18494,0.80578 0.49814,0.80578 -2.01559,0 -3.05273,1.65261 -1.68665,2.68755 0.34554,0.26178 1.13139,0.47597 1.74634,0.47597 1.63916,0 1.1552,0.69907 -0.55783,0.80578 -1.07542,0.067 -1.61432,-0.0722 -2.36092,-0.60981 z"
       id="path872"
       inkscape:connector-curvature="0" />
    <path
       style="opacity:1;fill:#ff2a2a;fill-opacity:1;fill-rule:nonzero;stroke:none;stroke-width:0.66500002;stroke-linecap:butt;stroke-linejoin:miter;stroke-miterlimit:4;stroke-dasharray:none;stroke-dashoffset:0;stroke-opacity:1;paint-order:stroke fill markers"
       d="m 130.53779,178.34411 c -0.58487,-0.48962 -0.68594,-0.88798 -0.6012,-2.36975 0.0785,-1.37332 0.22994,-1.80159 0.66121,-1.87031 0.45256,-0.0721 0.60579,0.27401 0.80269,1.81314 0.16257,1.27086 0.41219,1.9565 0.75203,2.06567 0.82665,0.26555 1.19577,-0.31301 1.39947,-2.1936 0.15425,-1.42408 0.30033,-1.75398 0.74399,-1.68026 0.88553,0.14713 0.78893,3.8623 -0.1148,4.41548 -0.98214,0.60118 -2.81839,0.51027 -3.64339,-0.18037 z"
       id="path874"
       inkscape:connector-curvature="0" />
    <path
       style="opacity:1;fill:#ff2a2a;fill-opacity:1;fill-rule:nonzero;stroke:none;stroke-width:0.66500002;stroke-linecap:butt;stroke-linejoin:miter;stroke-miterlimit:4;stroke-dasharray:none;stroke-dashoffset:0;stroke-opacity:1;paint-order:stroke fill markers"
       d="m 136.05044,176.45074 v -2.48194 l 1.58134,0.14921 c 1.94199,0.18324 2.71319,0.75059 2.40727,1.77096 -0.145,0.48363 -0.67113,0.91994 -1.50459,1.24773 -0.82933,0.32617 -1.32037,0.73202 -1.39141,1.15001 -0.0604,0.35528 -0.33092,0.64596 -0.6012,0.64596 -0.38823,0 -0.49141,-0.52113 -0.49141,-2.48193 z m 2.36696,-0.49963 c 0.29699,-0.29957 0.26263,-0.48161 -0.14427,-0.76431 -0.65661,-0.45619 -1.38932,0.0248 -1.0767,0.70682 0.25446,0.55512 0.70652,0.57641 1.22097,0.0575 z"
       id="path876"
       inkscape:connector-curvature="0" />
    <path
       style="opacity:1;fill:#0000ff;fill-opacity:1;fill-rule:nonzero;stroke:none;stroke-width:0.66500002;stroke-linecap:butt;stroke-linejoin:miter;stroke-miterlimit:4;stroke-dasharray:none;stroke-dashoffset:0;stroke-opacity:1;paint-order:stroke fill markers"
       d="m 87.591124,112.38572 c -1.378902,-0.78439 -2.67606,-2.2578 -3.824838,-4.34452 -0.714813,-1.29844 -0.791694,-1.85654 -0.792328,-5.75184 -5.23e-4,-3.891256 0.07659,-4.454763 0.788311,-5.751847 1.944316,-3.543462 4.099752,-5.032862 7.283476,-5.032862 1.769707,0 1.891233,0.05306 3.787245,1.653654 2.938504,2.480652 3.568177,4.058845 3.585773,8.987255 0.01575,4.41083 -0.415404,5.89064 -2.39558,8.22221 -2.277939,2.68217 -5.787792,3.52214 -8.432059,2.01795 z m 1.889196,-6.6544 c 0.366771,-0.23224 0.937374,-0.42225 1.268004,-0.42225 0.781499,0 1.168122,-0.53712 0.680472,-0.94535 -0.210274,-0.17603 -0.382314,-0.68242 -0.382314,-1.12531 0,-0.7803 -0.749947,-1.13052 -1.178327,-0.55027 -0.103539,0.14025 -0.734448,0.34077 -1.402024,0.44561 -1.166849,0.18325 -1.193557,0.21478 -0.690876,0.81558 0.287589,0.34372 0.522892,0.9844 0.522892,1.42374 0,0.89953 0.221362,0.96661 1.182173,0.35825 z m 3.627411,-3.87335 c 0,-0.31955 -0.229027,-0.57519 -0.515313,-0.57519 -0.286283,0 -0.515313,0.25564 -0.515313,0.57519 0,0.31955 0.22903,0.57518 0.515313,0.57518 0.286286,0 0.515313,-0.25563 0.515313,-0.57518 z m -4.318328,-0.5426 c 0.103544,-0.14025 -0.0085,-0.39168 -0.248903,-0.55873 -0.530219,-0.36838 -1.460134,0.04 -1.124944,0.49399 0.282612,0.38281 1.110236,0.4218 1.373847,0.0647 z m 1.685761,-2.569109 c 0.474851,-0.439252 0.493564,-0.60607 0.116421,-1.037846 -0.524155,-0.600083 -1.548709,-0.515212 -2.064923,0.171053 -0.261292,0.347368 -0.236227,0.604477 0.09113,0.934675 0.591497,0.596638 1.161515,0.575806 1.857373,-0.06788 z m 2.976108,-1.633563 c -0.242799,-0.24491 -0.518749,-0.38058 -0.613221,-0.301492 -0.09447,0.07909 0.02688,0.344174 0.26968,0.589084 0.242797,0.244908 0.518746,0.380578 0.613221,0.301492 0.09448,-0.07909 -0.02688,-0.344176 -0.26968,-0.589084 z m -1.030625,-1.294166 c 0,-0.158174 -0.163717,-0.287592 -0.363817,-0.287592 -0.200098,0 -0.268272,0.129418 -0.151496,0.287592 0.116776,0.158177 0.280494,0.287593 0.363817,0.287593 0.08332,0 0.151496,-0.129416 0.151496,-0.287593 z"
       id="path878"
       inkscape:connector-curvature="0" />
    <path
       style="opacity:1;fill:#0000ff;fill-opacity:1;fill-rule:nonzero;stroke:none;stroke-width:0.66500002;stroke-linecap:butt;stroke-linejoin:miter;stroke-miterlimit:4;stroke-dasharray:none;stroke-dashoffset:0;stroke-opacity:1;paint-order:stroke fill markers"
       d="m 113.892,99.035721 c -7.21577,-2.135545 -12.19573,-6.564807 -12.19573,-10.847084 0,-2.281645 2.42148,-4.268376 5.59989,-4.594489 6.28766,-0.645126 14.68781,3.144541 17.52133,7.904618 1.83459,3.081977 1.04249,5.988463 -1.99341,7.314468 -1.8863,0.823888 -6.5108,0.939078 -8.93208,0.222487 z m 6.53832,-3.346309 c 0.65525,-0.229194 1.19137,-0.552733 1.19137,-0.718981 0,-0.386529 -0.0249,-0.384378 -1.49295,0.12912 -0.67833,0.237265 -1.40942,0.431389 -1.62465,0.431389 -0.21523,0 -0.30235,-0.194124 -0.19359,-0.431389 0.18635,-0.406512 -0.13501,-0.550162 -1.02988,-0.46037 -0.72131,0.07238 -0.80959,-0.814662 -0.11218,-1.127118 0.46143,-0.206731 0.67429,-0.208117 0.67429,-0.0044 0,0.163743 0.30919,0.03888 0.68708,-0.277473 0.3779,-0.316351 0.84168,-0.575184 1.03063,-0.575184 0.52461,0 0.40924,-1.086663 -0.1977,-1.862113 -0.29768,-0.380329 -0.74606,-0.625711 -0.99639,-0.545293 -0.25034,0.08042 -0.43191,-0.02445 -0.4035,-0.23305 0.0284,-0.208594 -0.10295,-0.436717 -0.29189,-0.50694 -0.18895,-0.07022 -0.65273,-0.37437 -1.03063,-0.675881 -1.25592,-1.002063 -4.01306,-1.875863 -5.75432,-1.823673 -0.8975,0.0269 -1.63182,-0.0504 -1.63182,-0.171788 0,-0.121384 -0.32812,-0.220698 -0.72915,-0.220698 -0.64137,0 -0.67238,0.05842 -0.25766,0.485235 0.41948,0.431708 0.3957,0.459907 -0.21559,0.255644 -1.47514,-0.492922 -1.71358,-0.363653 -1.81626,0.984675 -0.33728,4.428958 8.88781,9.204546 14.19479,7.348275 z m -0.86988,-1.596432 c 0,-0.158177 -0.1546,-0.287592 -0.34355,-0.287592 -0.18894,0 -0.34354,0.129415 -0.34354,0.287592 0,0.158175 0.1546,0.287592 0.34354,0.287592 0.18895,0 0.34355,-0.129417 0.34355,-0.287592 z m 1.7177,-0.414415 c 0,-0.06975 -0.15459,-0.206808 -0.34354,-0.304566 -0.18895,-0.09776 -0.34354,-0.04069 -0.34354,0.126823 0,0.167512 0.15459,0.304566 0.34354,0.304566 0.18895,0 0.34354,-0.05707 0.34354,-0.126823 z"
       id="path880"
       inkscape:connector-curvature="0" />
    <path
       style="opacity:1;fill:#0000ff;fill-opacity:1;fill-rule:nonzero;stroke:none;stroke-width:0.66500002;stroke-linecap:butt;stroke-linejoin:miter;stroke-miterlimit:4;stroke-dasharray:none;stroke-dashoffset:0;stroke-opacity:1;paint-order:stroke fill markers"
       d="m 108.00664,127.46463 c -2.02586,-0.97269 -3.86391,-2.65433 -4.99868,-4.57329 -0.66266,-1.12059 -0.78908,-1.7931 -0.79241,-4.21528 -0.004,-2.68442 0.074,-3.01452 1.13328,-4.81582 1.96092,-3.33449 5.9011,-6.14012 10.4081,-7.41115 1.70334,-0.48036 2.80475,-0.59601 4.94238,-0.51897 3.22761,0.11633 5.07815,0.78555 6.30439,2.27989 0.71948,0.8768 0.78992,1.2271 0.66004,3.2823 -0.11977,1.89529 -0.37006,2.70499 -1.42025,4.59473 -2.4556,4.41865 -9.1398,12.04846 -10.11376,11.54455 -0.22757,-0.11774 -0.4095,-0.84317 -0.4095,-1.63285 0,-1.03753 -0.18541,-1.5762 -0.68709,-1.99618 -0.87711,-0.73426 -1.3983,-0.72449 -2.57177,0.0482 -0.90727,0.59744 -0.93743,0.6993 -0.72384,2.44454 0.12258,1.00161 0.17992,1.8199 0.12742,1.81842 -0.0525,-0.002 -0.88874,-0.38359 -1.85831,-0.84912 z m 5.39263,-10.66199 c 1.16497,-0.52193 0.62052,-2.00302 -0.73631,-2.00302 -0.98774,0 -1.50542,0.7753 -1.06186,1.59027 0.42382,0.77868 0.79251,0.86332 1.79817,0.41275 z m 4.54684,-2.21682 c 0.49511,-0.11887 0.57281,-0.32776 0.38902,-1.04584 -0.31147,-1.21696 -0.50374,-1.43424 -0.94343,-1.06616 -0.20541,0.17196 -0.74558,0.31265 -1.20037,0.31265 -0.61532,0 -0.77317,0.11722 -0.61691,0.45811 0.11549,0.25195 0.3057,0.77734 0.42268,1.16752 0.15427,0.51457 0.36617,0.65625 0.7715,0.51584 0.30735,-0.10647 0.83723,-0.26042 1.17751,-0.34212 z m -4.97102,-1.41523 c 0.0626,-0.026 -0.0588,-0.31718 -0.26974,-0.64708 -0.72994,-1.14177 -2.25507,-0.44917 -1.70201,0.77293 0.26431,0.58403 0.37917,0.61471 1.07695,0.28759 0.4296,-0.20139 0.83226,-0.38744 0.8948,-0.41344 z m 3.49347,-2.43248 c 0,-0.13881 -0.30918,-0.25238 -0.68708,-0.25238 -0.66017,0 -0.93136,0.56242 -0.46104,0.95615 0.26007,0.21772 1.14812,-0.32663 1.14812,-0.70377 z"
       id="path882"
       inkscape:connector-curvature="0" />
    <path
       style="opacity:1;fill:#ff0000;fill-opacity:1;fill-rule:nonzero;stroke:none;stroke-width:0.66500002;stroke-linecap:butt;stroke-linejoin:miter;stroke-miterlimit:4;stroke-dasharray:none;stroke-dashoffset:0;stroke-opacity:1;paint-order:stroke fill markers"
       d="m 108.91064,166.94211 c 0,-0.14607 0.60744,-0.64629 1.34987,-1.11161 2.99758,-1.87878 4.30323,-4.73403 4.26643,-9.33002 -0.0517,-6.45848 -2.46352,-12.82699 -7.22027,-19.06557 -1.82733,-2.39659 -5.87884,-6.82293 -6.23024,-6.80665 -0.13146,0.006 -0.5482,0.42159 -0.9261,0.92332 -0.802689,1.06574 -3.284653,2.42388 -4.927636,2.69643 l -1.148684,0.19055 0.679495,-1.11981 c 0.960602,-1.58308 1.532382,-4.18046 1.257759,-5.71354 -0.128269,-0.71605 -0.341183,-1.30191 -0.473143,-1.30191 -0.131962,0 -0.581892,0.3872 -0.999844,0.86045 -0.723425,0.81912 -2.424035,1.70981 -4.085499,2.13976 l -0.765469,0.19808 0.672039,-1.23965 c 1.278678,-2.35866 0.720746,-6.62101 -1.372566,-10.48584 -0.571039,-1.05429 -0.981029,-1.9648 -0.911089,-2.02335 0.06994,-0.0586 0.545154,0.0266 1.056027,0.18919 2.15325,0.68533 5.728653,0.23163 7.901289,-1.00264 0.692097,-0.39318 1.312505,-0.71487 1.378685,-0.71487 0.06618,0 0.116063,1.06769 0.110853,2.37264 -0.02089,5.22979 1.925323,8.6605 9.177063,16.17706 1.83123,1.89811 4.09989,4.48643 5.04147,5.75184 6.49985,8.73532 10.31146,20.55002 7.90416,24.50023 -1.23226,2.02204 -4.88153,3.51364 -9.75923,3.98897 -1.14465,0.11154 -1.97537,0.0808 -1.97537,-0.0731 z m 9.70506,-5.37772 c 0.75409,-0.47921 0.74564,-0.71987 -0.056,-1.59289 -0.58696,-0.63926 -0.68866,-0.65991 -1.18863,-0.24138 -0.3007,0.25174 -0.73315,0.50972 -0.961,0.5733 -0.28946,0.0808 -0.21369,0.3457 0.25152,0.87942 0.7514,0.86205 1.093,0.92874 1.95407,0.38155 z m 0.0432,-4.55523 c 0.28973,-0.38515 0.23942,-0.611 -0.2222,-0.99744 -0.56662,-0.47434 -0.63425,-0.46815 -1.34007,0.12272 -0.63077,0.52804 -0.67436,0.69184 -0.28788,1.08167 0.55155,0.55636 1.3425,0.46788 1.85015,-0.20695 z m -0.98798,-3.67219 c 0,-0.62371 -1.34028,-0.53779 -1.48591,0.0952 -0.094,0.4084 0.0592,0.50525 0.68238,0.43139 0.44194,-0.0524 0.80353,-0.28938 0.80353,-0.52664 z m -1.2024,-2.75609 c 0,-0.50787 -0.73956,-0.41942 -0.95189,0.11383 -0.0748,0.18784 0.10878,0.34152 0.40795,0.34152 0.29917,0 0.54394,-0.20491 0.54394,-0.45535 z M 94.764742,120.45573 c 0.06575,-0.28379 -0.109506,-0.47945 -0.429427,-0.47945 -0.318681,0 -0.540501,0.24589 -0.540501,0.59914 0,0.70088 0.802779,0.60181 0.969928,-0.11969 z m 2.141454,-1.62982 c 0.548351,0 0.617053,-0.14666 0.437871,-0.93468 -0.268455,-1.18063 -0.16178,-1.11358 -1.433132,-0.90072 -0.734033,0.1229 -1.085498,0.34872 -1.085498,0.69745 0,0.89304 0.410657,1.46552 0.931284,1.29827 0.274495,-0.0882 0.791758,-0.16032 1.149475,-0.16032 z"
       id="path884"
       inkscape:connector-curvature="0" />
    <path
       style="opacity:1;fill:#ff0000;fill-opacity:1;fill-rule:nonzero;stroke:none;stroke-width:0.66500002;stroke-linecap:butt;stroke-linejoin:miter;stroke-miterlimit:4;stroke-dasharray:none;stroke-dashoffset:0;stroke-opacity:1;paint-order:stroke fill markers"
       d="m 103.31738,104.08681 c 0.0951,-1.6213 0.0148,-3.65961 -0.17839,-4.529579 -0.19323,-0.869967 -0.31542,-1.612476 -0.27154,-1.650021 0.0439,-0.03755 1.58813,0.764239 3.43165,1.781741 1.84353,1.017499 4.11406,2.061929 5.04562,2.320959 1.50408,0.41821 2.01866,0.99843 0.88549,0.99843 -0.73882,0 -5.45139,2.00752 -7.12084,3.03343 -0.88862,0.54607 -1.69425,0.99286 -1.7903,0.99286 -0.096,0 -0.0968,-1.32652 -0.002,-2.94782 z"
       id="path886"
       inkscape:connector-curvature="0" />
    <path
       style="opacity:1;fill:#ff0000;fill-opacity:1;fill-rule:nonzero;stroke:none;stroke-width:0.66500002;stroke-linecap:butt;stroke-linejoin:miter;stroke-miterlimit:4;stroke-dasharray:none;stroke-dashoffset:0;stroke-opacity:1;paint-order:stroke fill markers"
       d="m 127.6409,107.14437 c -0.66092,-1.3292 -2.98232,-3.39101 -4.35311,-3.86633 -0.53846,-0.18672 -0.97902,-0.43141 -0.97902,-0.54375 0,-0.11235 0.77802,-0.62631 1.72894,-1.14213 1.49816,-0.81267 3.16408,-2.606428 3.89314,-4.19187 0.0854,-0.185654 0.273,-0.177401 0.52937,0.02329 0.9378,0.734138 0.99474,9.78317 0.0664,10.56028 -0.21188,0.17738 -0.5301,-0.12422 -0.88576,-0.83949 z m -0.17358,-4.00072 c 0.40482,-0.63323 0.38991,-0.79039 -0.11508,-1.21314 -0.54451,-0.45583 -0.62623,-0.4471 -1.33009,0.14213 -0.7306,0.61161 -0.73362,0.6429 -0.11717,1.21314 0.81562,0.75447 0.99985,0.73771 1.56234,-0.14213 z"
       id="path888"
       inkscape:connector-curvature="0" />
    <path
       style="opacity:1;fill:#ff0000;fill-opacity:1;fill-rule:nonzero;stroke:none;stroke-width:0.66500002;stroke-linecap:butt;stroke-linejoin:miter;stroke-miterlimit:4;stroke-dasharray:none;stroke-dashoffset:0;stroke-opacity:1;paint-order:stroke fill markers"
       d="m 96.027834,90.154213 c -1.168059,-0.508968 -2.459736,-0.793128 -4.036615,-0.888029 -1.275397,-0.07676 -2.318905,-0.251853 -2.318905,-0.389102 0,-0.32599 3.911853,-2.733802 5.645448,-3.474872 1.841784,-0.787316 5.744058,-2.001945 5.930438,-1.845917 0.0833,0.06977 -0.38589,0.716239 -1.04273,1.436606 -1.389643,1.524038 -2.042094,2.998895 -2.085475,4.714197 -0.017,0.672223 -0.108209,1.216231 -0.202681,1.208908 -0.09447,-0.0073 -0.94474,-0.350132 -1.88948,-0.761791 z m 1.202397,-1.923346 c 0,-0.811991 -0.143513,-0.996012 -0.867055,-1.111801 -0.958108,-0.153324 -1.003767,-0.119183 -1.319001,0.986316 -0.183363,0.643041 -0.09158,0.791487 0.553702,0.895508 1.558789,0.251285 1.632354,0.216584 1.632354,-0.770023 z"
       id="path890"
       inkscape:connector-curvature="0" />
    <path
       style="opacity:1;fill:#ff0000;fill-opacity:1;fill-rule:nonzero;stroke:none;stroke-width:0.66500002;stroke-linecap:butt;stroke-linejoin:miter;stroke-miterlimit:4;stroke-dasharray:none;stroke-dashoffset:0;stroke-opacity:1;paint-order:stroke fill markers"
       d="m 102.7921,150.82054 c 0.0673,-0.11864 0.48955,-0.81669 0.93822,-1.55124 0.44868,-0.73455 0.72395,-1.53586 0.61172,-1.7807 -0.32912,-0.71798 -1.87685,-1.42099 -2.73261,-1.24118 -0.88821,0.18662 -1.974409,1.55344 -1.974409,2.48451 0,0.84365 -0.728324,0.60564 -1.374167,-0.44906 -0.398424,-0.65066 -0.51531,-1.95052 -0.51531,-5.73061 0,-6.23889 0.150349,-6.84592 1.928304,-7.78551 l 1.379512,-0.72902 0.75088,0.79455 c 2.82939,2.9939 7.10786,8.8393 7.10305,9.70444 -0.005,0.95052 -1.6474,3.67226 -2.85172,4.7266 -1.32559,1.16051 -3.6746,2.28138 -3.26347,1.55722 z m 1.56673,-6.75842 c 0.39887,-0.3559 0.95668,-0.80524 1.23959,-0.99854 0.44355,-0.30308 0.34907,-0.48984 -0.68617,-1.35648 l -1.20053,-1.00501 -1.20957,1.01257 -1.20957,1.01257 0.88893,0.68966 c 0.48891,0.37932 0.88893,0.82526 0.88893,0.99099 0,0.48581 0.50972,0.34901 1.28839,-0.34576 z"
       id="path892"
       inkscape:connector-curvature="0" />
    <path
       style="opacity:1;fill:#ff0000;fill-opacity:1;fill-rule:nonzero;stroke:none;stroke-width:0.66500002;stroke-linecap:butt;stroke-linejoin:miter;stroke-miterlimit:4;stroke-dasharray:none;stroke-dashoffset:0;stroke-opacity:1;paint-order:stroke fill markers"
       d="m 92.464188,161.1384 c -1.078196,-0.90259 -0.971075,-1.99947 0.214115,-2.19249 5.763838,-0.93868 8.268897,-2.08323 12.723657,-5.81337 1.94365,-1.6275 3.62273,-2.95909 3.7313,-2.95909 0.44733,0 -0.3535,2.27265 -1.3681,3.8825 -2.49563,3.95973 -7.909019,7.24646 -12.436315,7.55069 -1.851821,0.12443 -2.230657,0.0625 -2.864657,-0.46824 z"
       id="path894"
       inkscape:connector-curvature="0" />
    <path
       style="opacity:1;fill:#ff0000;fill-opacity:1;fill-rule:nonzero;stroke:none;stroke-width:0.66500002;stroke-linecap:butt;stroke-linejoin:miter;stroke-miterlimit:4;stroke-dasharray:none;stroke-dashoffset:0;stroke-opacity:1;paint-order:stroke fill markers"
       d="m 96.886689,165.88375 c -1.869208,-0.45329 -3.778958,-1.25573 -3.778958,-1.58785 0,-0.13331 1.160132,-0.30471 2.578071,-0.38089 3.480646,-0.18699 6.893928,-1.58922 10.174238,-4.17973 2.42371,-1.91404 4.37442,-4.6462 4.93847,-6.91683 0.132,-0.53136 0.4114,-0.90022 0.63411,-0.83713 0.68559,0.19421 0.50984,6.95365 -0.22722,8.73829 -0.74196,1.79652 -2.89528,3.92121 -4.82727,4.76309 -1.75265,0.76373 -7.069467,0.98838 -9.491441,0.40105 z m 7.729691,-1.90587 c 0,-0.85828 -1.18694,-1.14004 -1.87572,-0.44527 -0.35955,0.36267 -0.35955,0.52786 0,0.89054 0.68878,0.69476 1.87572,0.413 1.87572,-0.44527 z m 3.09187,-1.57782 c 0,-0.63447 -1.06804,-0.95043 -1.62804,-0.48163 -0.57742,0.48337 -0.008,1.24734 0.85354,1.14495 0.50678,-0.0602 0.7745,-0.28953 0.7745,-0.66332 z m 1.81075,-2.10696 c 0.076,-0.19077 -0.17993,-0.34151 -0.57973,-0.34151 -0.71364,0 -0.92753,0.30199 -0.47952,0.67704 0.31828,0.26644 0.89191,0.0847 1.05925,-0.33553 z m 0.79158,-1.85856 c -0.0425,-0.34388 -0.5137,-0.27728 -0.66132,0.0935 -0.0756,0.18981 0.0481,0.29334 0.27483,0.23007 0.22674,-0.0633 0.40066,-0.20886 0.38649,-0.32354 z"
       id="path896"
       inkscape:connector-curvature="0" />
    <path
       style="opacity:1;fill:#0066ff;fill-opacity:1;fill-rule:nonzero;stroke:none;stroke-width:0.66500002;stroke-linecap:butt;stroke-linejoin:miter;stroke-miterlimit:4;stroke-dasharray:none;stroke-dashoffset:0;stroke-opacity:1;paint-order:stroke fill markers"
       d="m 116.12502,93.517795 c 0,-0.158176 0.16372,-0.287592 0.36382,-0.287592 0.2001,0 0.26827,0.129416 0.15149,0.287592 -0.11677,0.158175 -0.28049,0.287593 -0.36382,0.287593 -0.0833,0 -0.15149,-0.129418 -0.15149,-0.287593 z"
       id="path900"
       inkscape:connector-curvature="0" />
    <path
       style="opacity:1;fill:#0066ff;fill-opacity:1;fill-rule:nonzero;stroke:none;stroke-width:0.66500002;stroke-linecap:butt;stroke-linejoin:miter;stroke-miterlimit:4;stroke-dasharray:none;stroke-dashoffset:0;stroke-opacity:1;paint-order:stroke fill markers"
       d="m 113.25245,91.073262 c -0.10876,-0.237265 -0.0645,-0.431388 0.0983,-0.431388 0.16281,0 0.38499,0.194123 0.49375,0.431388 0.10876,0.237263 0.0645,0.431389 -0.0983,0.431389 -0.1628,0 -0.38499,-0.194126 -0.49375,-0.431389 z"
       id="path902"
       inkscape:connector-curvature="0" />
    <path
       style="opacity:1;fill:#0066ff;fill-opacity:1;fill-rule:nonzero;stroke:none;stroke-width:2.51338577;stroke-linecap:butt;stroke-linejoin:miter;stroke-miterlimit:4;stroke-dasharray:none;stroke-dashoffset:0;stroke-opacity:1;paint-order:stroke fill markers"
       d=""
       id="path904"
       inkscape:connector-curvature="0"
       transform="scale(0.26458333)" />
    <path
       style="opacity:1;fill:#002255;fill-opacity:1;fill-rule:nonzero;stroke:none;stroke-width:0.66500002;stroke-linecap:butt;stroke-linejoin:miter;stroke-miterlimit:4;stroke-dasharray:none;stroke-dashoffset:0;stroke-opacity:1;paint-order:stroke fill markers"
       d="m 116.28192,95.923787 c -2.76376,-0.388418 -5.43857,-1.548074 -7.47819,-3.24215 -1.38308,-1.148765 -2.31443,-2.506343 -2.49314,-3.634107 -0.0568,-0.358347 -0.052,-0.370618 0.1264,-0.323223 0.12241,0.03252 0.28753,-0.0036 0.48588,-0.106181 l 0.30045,-0.15545 0.12659,0.253635 c 0.0715,0.143313 0.10477,0.345013 0.0764,0.463717 -0.0438,0.183411 0.0169,0.270147 0.47843,0.683152 0.29499,0.263991 0.71551,0.551028 0.95147,0.649466 0.36564,0.152528 0.40487,0.188892 0.28996,0.268732 -0.0731,0.05078 -0.18932,0.183665 -0.25827,0.29529 -0.1418,0.229542 -0.29273,0.26746 -0.29273,0.07354 0,-0.165266 -0.16055,-0.301063 -0.30216,-0.255574 -0.0602,0.01935 -0.16897,-0.03597 -0.24171,-0.122916 -0.15255,-0.18233 -0.40087,-0.143963 -0.40087,0.06194 0,0.344981 1.33571,1.621456 2.06443,1.972873 0.21082,0.101663 0.54832,0.207079 0.75001,0.234257 0.2017,0.02718 0.41506,0.08988 0.47415,0.139345 0.20823,0.174319 0.48311,0.256438 0.85839,0.256438 0.56585,0 0.91429,-0.127136 1.40896,-0.514084 0.24516,-0.19178 0.48671,-0.348693 0.53678,-0.348693 0.23964,0 0.43457,-0.292938 0.43457,-0.653073 0,-0.201017 0.0356,-0.354699 0.0791,-0.341516 0.0435,0.01318 0.3336,0.310225 0.64461,0.660099 0.7615,0.856647 0.83219,1.125369 0.29603,1.125369 -0.21547,0 -0.24971,-0.02287 -0.20618,-0.137684 0.0729,-0.192412 -0.25126,-0.365776 -0.6824,-0.364901 -0.45939,8.74e-4 -1.21281,0.297294 -1.29292,0.50857 -0.0811,0.214029 0.14429,0.353505 0.57135,0.353505 0.59404,0 1.06188,0.272383 0.75319,0.438518 -0.1688,0.09085 -0.55836,0.0085 -1.09817,-0.232128 -0.50062,-0.223164 -0.72407,-0.242536 -1.25449,-0.108743 l -0.34331,0.0866 0.47071,0.311476 c 0.61203,0.404996 0.78526,0.454512 1.49174,0.42642 l 0.58876,-0.02341 0.0983,0.251641 c 0.13601,0.34807 0.51854,0.489272 1.47508,0.544492 0.57601,0.03325 0.88444,0.09118 1.22244,0.229576 0.43303,0.177312 0.47608,0.1814 1.02241,0.09713 0.74626,-0.11511 2.0696,-0.467163 2.80139,-0.745265 0.43955,-0.167042 0.60708,-0.201133 0.68165,-0.138707 0.23611,0.197654 -0.67144,0.692517 -1.73708,0.947189 -0.82486,0.197127 -2.49922,0.252415 -3.47808,0.114845 z"
       id="path906"
       inkscape:connector-curvature="0" />
    <path
       style="opacity:1;fill:#002255;fill-opacity:1;fill-rule:nonzero;stroke:none;stroke-width:0.66500002;stroke-linecap:butt;stroke-linejoin:miter;stroke-miterlimit:4;stroke-dasharray:none;stroke-dashoffset:0;stroke-opacity:1;paint-order:stroke fill markers"
       d="m 116.69421,93.483969 c 0.0243,-0.05301 0.0109,-0.141542 -0.0299,-0.196727 -0.0596,-0.08076 -0.12508,-0.08422 -0.33559,-0.01771 -0.25771,0.08143 -0.26152,0.07926 -0.26152,-0.148685 0,-0.313345 -0.38062,-0.794554 -0.98535,-1.24576 -0.42156,-0.314534 -0.5368,-0.365784 -0.7444,-0.331029 -0.19258,0.03225 -0.24562,0.01493 -0.24562,-0.08016 0,-0.06671 -0.0982,-0.294962 -0.2181,-0.507233 -0.28131,-0.497802 -0.73712,-0.703704 -1.64634,-0.7437 -0.52016,-0.02288 -0.66699,-0.0025 -0.91872,0.127781 -0.21274,0.110066 -0.41331,0.150085 -0.69172,0.138022 -0.52705,-0.02284 -0.64868,0.08751 -0.36146,0.327956 0.29047,0.243167 0.6999,0.245257 1.08801,0.0056 0.51618,-0.318802 1.19424,-0.213311 1.66976,0.259774 0.28933,0.287859 0.75654,1.05494 0.69406,1.139563 -0.0258,0.03493 -0.15484,0.08336 -0.28677,0.107618 -0.13194,0.02426 -0.42816,0.156163 -0.65828,0.293123 -0.32081,0.190945 -0.50429,0.249016 -0.78676,0.249016 -0.49843,0 -0.83281,-0.255738 -1.40919,-1.077765 -0.48132,-0.686469 -0.67676,-0.811668 -0.94721,-0.606777 -0.22866,0.173232 -0.291,0.08854 -0.12848,-0.174556 0.18907,-0.306082 0.17253,-0.741966 -0.0366,-0.964544 -0.0945,-0.100543 -0.17177,-0.20197 -0.17177,-0.22539 0,-0.09867 0.24329,-0.03119 0.39464,0.109463 0.41985,0.390173 1.05124,0.313198 1.55303,-0.18933 0.2253,-0.225639 0.44161,-0.354099 0.73241,-0.434956 0.48597,-0.135126 0.87503,-0.436043 1.01158,-0.782388 0.10834,-0.274812 0.005,-0.542823 -0.21009,-0.542823 -0.16414,0 -0.44495,0.313822 -0.56695,0.633601 -0.15234,0.399295 -0.2146,0.412563 -0.43006,0.09164 -0.23471,-0.349599 -0.33743,-0.372686 -0.33743,-0.07585 0,0.542946 -0.47263,1.004263 -1.02889,1.004263 -0.42883,0 -0.60293,-0.172433 -0.60293,-0.597162 0,-0.380325 0.12575,-0.48397 0.75592,-0.62302 0.20319,-0.04484 0.39094,-0.128428 0.41722,-0.18576 0.0535,-0.116742 -0.0125,-0.372423 -0.13791,-0.534341 -0.0706,-0.09113 -0.10875,-0.08357 -0.25877,0.05123 -0.18572,0.166882 -0.80798,0.343907 -0.95021,0.270321 -0.19149,-0.09907 0.013,-0.580523 0.27626,-0.650473 0.11345,-0.03014 0.14657,-0.08468 0.11001,-0.181127 -0.0451,-0.11897 -0.009,-0.137999 0.26317,-0.137999 0.23517,0 0.35899,0.04628 0.48628,0.181753 0.0939,0.09996 0.32172,0.246212 0.5062,0.325001 l 0.33542,0.143252 0.001,-0.199182 c 0.002,-0.343278 0.10386,-0.404847 0.58064,-0.3519 0.23532,0.02613 0.71275,0.128047 1.06094,0.226474 0.96449,0.27265 0.92028,0.247789 0.65199,0.366593 -0.1313,0.05814 -0.219,0.132444 -0.19488,0.165111 0.0241,0.03267 0.36699,0.0736 0.76195,0.09095 0.57309,0.02518 0.79458,0.06907 1.09679,0.217331 0.47673,0.233886 0.73803,0.467672 0.62678,0.560802 -0.15058,0.126056 -0.97246,0.216895 -1.33887,0.147976 -0.38408,-0.07224 -0.58421,-0.03733 -0.58421,0.101925 0,0.144557 0.19418,0.242558 0.58399,0.294739 0.29961,0.04011 0.36075,0.07568 0.36075,0.209862 0,0.178869 0.33354,0.277772 0.68056,0.201803 0.16405,-0.03591 0.1869,-0.08269 0.16307,-0.333818 -0.0274,-0.288259 -0.0232,-0.292841 0.31583,-0.352646 0.29767,-0.0525 0.3636,-0.03994 0.49383,0.09408 0.17403,0.179078 0.20412,0.778934 0.0568,1.132648 -0.10697,0.256877 -0.55028,0.515949 -0.88286,0.515949 -0.24202,0 -0.24751,-0.01062 -0.26048,-0.503286 -0.008,-0.29595 -0.0283,-0.325453 -0.24045,-0.345948 -0.65596,-0.06337 -0.76626,0.343661 -0.23812,0.878699 0.32097,0.325159 0.33597,0.359517 0.20844,0.477482 -0.12706,0.117536 -0.12342,0.13083 0.0483,0.176453 0.23519,0.06249 0.78661,-0.173286 1.57057,-0.671546 0.32135,-0.204239 0.6178,-0.371344 0.65878,-0.371344 0.041,0 0.0985,0.21839 0.12777,0.485312 0.0992,0.903955 0.10475,0.915568 0.60684,1.274663 0.25854,0.184902 0.47007,0.377201 0.47007,0.427331 0,0.132872 -0.28734,0.329125 -0.48189,0.329125 -0.38534,0 -1.06696,0.20554 -1.38841,0.41867 -0.37161,0.246387 -0.49253,0.284147 -0.4228,0.132019 z m -4.23419,-3.634612 c 0,-0.09983 -0.24961,-0.155921 -0.4792,-0.107681 -0.32545,0.06838 -0.24376,0.171886 0.13566,0.171886 0.18894,0 0.34354,-0.02889 0.34354,-0.06421 z m 1.15026,-0.265217 c 0.10742,-0.234329 0.0548,-0.317661 -0.20045,-0.317661 -0.30449,0 -0.38839,0.09104 -0.26368,0.286108 0.11055,0.172922 0.3906,0.191962 0.46413,0.03155 z"
       id="path908"
       inkscape:connector-curvature="0" />
    <path
       style="opacity:1;fill:#ffffff;fill-opacity:1;fill-rule:nonzero;stroke:none;stroke-width:0.66500002;stroke-linecap:butt;stroke-linejoin:miter;stroke-miterlimit:4;stroke-dasharray:none;stroke-dashoffset:0;stroke-opacity:1;paint-order:stroke fill markers"
       d="m 88.479674,105.351 c -0.04577,-0.73248 -0.231458,-1.18528 -0.677309,-1.65159 -0.1421,-0.14862 -0.237854,-0.298 -0.212786,-0.33195 0.02507,-0.034 0.340188,-0.0776 0.700269,-0.0969 0.570751,-0.0307 0.760162,-0.0803 1.477254,-0.38703 0.452411,-0.19352 0.848561,-0.36102 0.880337,-0.37222 0.03178,-0.0112 0.08027,0.27034 0.107772,0.62566 0.05331,0.68892 0.24434,1.16299 0.564528,1.40102 0.229254,0.17043 0.2384,0.44485 0.01812,0.54354 -0.09137,0.0409 -0.324225,0.0744 -0.51746,0.0744 -0.47518,0 -1.209314,0.2256 -1.701866,0.52298 -0.223203,0.13477 -0.448919,0.26556 -0.501589,0.29066 -0.06628,0.0316 -0.10854,-0.15885 -0.137266,-0.61859 z"
       id="path910"
       inkscape:connector-curvature="0" />
    <path
       style="opacity:1;fill:#ffffff;fill-opacity:1;fill-rule:nonzero;stroke:none;stroke-width:0.66500002;stroke-linecap:butt;stroke-linejoin:miter;stroke-miterlimit:4;stroke-dasharray:none;stroke-dashoffset:0;stroke-opacity:1;paint-order:stroke fill markers"
       d="m 87.639136,101.34535 c -0.09447,-0.0791 -0.171771,-0.19233 -0.171771,-0.25164 0,-0.20229 0.32721,-0.39544 0.669906,-0.39544 0.386746,0 0.532491,0.10121 0.532491,0.36979 0,0.38094 -0.686254,0.56558 -1.030626,0.27729 z"
       id="path912"
       inkscape:connector-curvature="0" />
    <path
       style="opacity:1;fill:#ffffff;fill-opacity:1;fill-rule:nonzero;stroke:none;stroke-width:0.66500002;stroke-linecap:butt;stroke-linejoin:miter;stroke-miterlimit:4;stroke-dasharray:none;stroke-dashoffset:0;stroke-opacity:1;paint-order:stroke fill markers"
       d="m 88.790001,98.800161 c -0.239389,-0.200402 -0.29201,-0.298871 -0.29201,-0.546426 0,-0.246147 0.05273,-0.346114 0.285236,-0.540755 0.554137,-0.463888 1.385728,-0.393645 1.752201,0.148009 0.261086,0.38589 0.2449,0.541155 -0.08355,0.801403 -0.38156,0.302333 -0.593098,0.382222 -1.012095,0.382222 -0.292371,0 -0.411163,-0.04469 -0.649787,-0.244453 z"
       id="path914"
       inkscape:connector-curvature="0" />
    <path
       style="opacity:1;fill:#ffffff;fill-opacity:1;fill-rule:nonzero;stroke:none;stroke-width:0.66500002;stroke-linecap:butt;stroke-linejoin:miter;stroke-miterlimit:4;stroke-dasharray:none;stroke-dashoffset:0;stroke-opacity:1;paint-order:stroke fill markers"
       d="m 92.283183,102.16248 c -0.212134,-0.22576 -0.226544,-0.43953 -0.04431,-0.65733 0.165582,-0.1979 0.330404,-0.20267 0.553385,-0.016 0.22084,0.18488 0.22084,0.53411 0,0.71898 -0.224566,0.188 -0.295522,0.18164 -0.509076,-0.0456 z"
       id="path916"
       inkscape:connector-curvature="0" />
    <path
       style="opacity:1;fill:#ffffff;fill-opacity:1;fill-rule:nonzero;stroke:none;stroke-width:0.66500002;stroke-linecap:butt;stroke-linejoin:miter;stroke-miterlimit:4;stroke-dasharray:none;stroke-dashoffset:0;stroke-opacity:1;paint-order:stroke fill markers"
       d="m 96.356504,88.975807 c -0.188947,-0.07532 -0.50041,-0.137794 -0.69214,-0.13883 -0.191728,-0.0011 -0.413458,-0.04233 -0.492731,-0.09176 -0.131847,-0.08221 -0.133333,-0.123579 -0.01744,-0.485312 0.06968,-0.217491 0.12716,-0.493392 0.127718,-0.61311 0.0013,-0.266468 0.214338,-0.53726 0.422776,-0.53726 0.0849,0 0.263298,0.08452 0.396442,0.187817 0.207185,0.160741 0.294421,0.181811 0.605137,0.146159 0.335237,-0.03847 0.367243,-0.02768 0.417741,0.140747 0.03008,0.100322 0.0147,0.36618 -0.03418,0.590796 -0.04888,0.224616 -0.0986,0.521366 -0.110499,0.659446 -0.02601,0.301752 -0.14984,0.329848 -0.622829,0.141304 z"
       id="path918"
       inkscape:connector-curvature="0" />
    <path
       style="opacity:1;fill:#ffffff;fill-opacity:1;fill-rule:nonzero;stroke:none;stroke-width:0.66500002;stroke-linecap:butt;stroke-linejoin:miter;stroke-miterlimit:4;stroke-dasharray:none;stroke-dashoffset:0;stroke-opacity:1;paint-order:stroke fill markers"
       d="m 126.45698,103.52762 c -0.37756,-0.21065 -0.94238,-0.6992 -0.94238,-0.81513 0,-0.10239 1.0975,-1.07955 1.21251,-1.07955 0.12674,0 0.93463,0.89607 0.93463,1.03665 0,0.0878 -0.0995,0.23215 -0.22123,0.32071 -0.12167,0.0886 -0.27678,0.27235 -0.34469,0.40841 -0.13796,0.27639 -0.31166,0.31145 -0.63884,0.12891 z"
       id="path920"
       inkscape:connector-curvature="0" />
    <path
       style="opacity:1;fill:#ffffff;fill-opacity:1;fill-rule:nonzero;stroke:none;stroke-width:0.66500002;stroke-linecap:butt;stroke-linejoin:miter;stroke-miterlimit:4;stroke-dasharray:none;stroke-dashoffset:0;stroke-opacity:1;paint-order:stroke fill markers"
       d="m 116.2613,114.84421 c -0.0465,-0.0494 -0.10821,-0.26782 -0.13706,-0.48531 -0.0297,-0.22363 -0.16541,-0.57945 -0.3124,-0.81896 -0.36307,-0.59152 -0.35284,-0.61868 0.2339,-0.62072 0.65643,-0.002 1.11284,-0.0973 1.34506,-0.27987 0.18417,-0.14485 0.55286,-0.20596 0.57839,-0.0959 0.007,0.0297 0.0204,0.21976 0.0301,0.42245 0.01,0.20269 0.10068,0.51218 0.20221,0.68776 0.29643,0.51261 0.21957,0.84388 -0.18294,0.78842 -0.21112,-0.0291 -0.72895,0.12141 -1.11227,0.32328 -0.36091,0.19005 -0.5218,0.20971 -0.645,0.0788 z"
       id="path922"
       inkscape:connector-curvature="0" />
    <path
       style="opacity:1;fill:#ffffff;fill-opacity:1;fill-rule:nonzero;stroke:none;stroke-width:0.66500002;stroke-linecap:butt;stroke-linejoin:miter;stroke-miterlimit:4;stroke-dasharray:none;stroke-dashoffset:0;stroke-opacity:1;paint-order:stroke fill markers"
       d="m 112.30901,116.90037 c -0.41689,-0.17203 -0.79373,-0.63928 -0.79373,-0.98415 0,-0.24346 0.0592,-0.33323 0.41716,-0.63292 0.37607,-0.31483 0.45544,-0.34922 0.80591,-0.34922 0.34359,0 0.42429,0.0329 0.6945,0.2833 0.38633,0.35798 0.59575,0.69408 0.53399,0.85698 -0.0749,0.1975 -0.74681,0.73758 -1.05316,0.8465 -0.33068,0.11757 -0.26469,0.11981 -0.60467,-0.0205 z"
       id="path924"
       inkscape:connector-curvature="0" />
    <path
       style="opacity:1;fill:#ffffff;fill-opacity:1;fill-rule:nonzero;stroke:none;stroke-width:0.66500002;stroke-linecap:butt;stroke-linejoin:miter;stroke-miterlimit:4;stroke-dasharray:none;stroke-dashoffset:0;stroke-opacity:1;paint-order:stroke fill markers"
       d="m 111.31067,113.55004 c -0.0675,-0.089 -0.19051,-0.34555 -0.27343,-0.57017 -0.13826,-0.37456 -0.13948,-0.42281 -0.0147,-0.58229 0.17251,-0.2204 0.84179,-0.39033 1.16689,-0.29628 0.18103,0.0524 0.26541,0.16028 0.41236,0.52729 0.10161,0.25379 0.16686,0.50046 0.14499,0.54816 -0.0219,0.0477 -0.19459,0.10745 -0.38384,0.13278 -0.19463,0.026 -0.43652,0.12343 -0.55686,0.22417 -0.26233,0.21961 -0.33937,0.22215 -0.49545,0.0163 z"
       id="path926"
       inkscape:connector-curvature="0" />
    <path
       style="opacity:1;fill:#ffffff;fill-opacity:1;fill-rule:nonzero;stroke:none;stroke-width:0.66500002;stroke-linecap:butt;stroke-linejoin:miter;stroke-miterlimit:4;stroke-dasharray:none;stroke-dashoffset:0;stroke-opacity:1;paint-order:stroke fill markers"
       d="m 115.34286,111.3156 c -0.19906,-0.12186 -0.20066,-0.44314 -0.003,-0.62589 0.17161,-0.15873 0.63414,-0.19077 0.79616,-0.0551 0.18205,0.1524 0.12024,0.46716 -0.12323,0.62748 -0.26215,0.17263 -0.45066,0.18769 -0.66982,0.0535 z"
       id="path928"
       inkscape:connector-curvature="0" />
    <path
       style="opacity:1;fill:#ffffff;fill-opacity:1;fill-rule:nonzero;stroke:none;stroke-width:0.66500002;stroke-linecap:butt;stroke-linejoin:miter;stroke-miterlimit:4;stroke-dasharray:none;stroke-dashoffset:0;stroke-opacity:1;paint-order:stroke fill markers"
       d="m 95.291616,118.7986 c -0.22434,-0.4936 -0.417958,-1.24526 -0.348679,-1.35363 0.04709,-0.0737 0.237402,-0.13695 0.499242,-0.16603 0.232725,-0.0258 0.516386,-0.10839 0.630358,-0.18343 0.113969,-0.0751 0.350094,-0.1589 0.524719,-0.18632 l 0.317503,-0.0499 0.0024,0.38546 c 0.0016,0.25818 0.08151,0.5408 0.242126,0.85586 0.131889,0.25872 0.225525,0.50625 0.208078,0.55007 -0.02071,0.052 -0.203498,0.0666 -0.525777,0.0422 -0.394928,-0.03 -0.565693,-0.007 -0.85112,0.11499 -0.45479,0.19423 -0.607202,0.1922 -0.698775,-0.009 z"
       id="path930"
       inkscape:connector-curvature="0" />
    <path
       style="opacity:1;fill:#ffffff;fill-opacity:1;fill-rule:nonzero;stroke:none;stroke-width:0.66500002;stroke-linecap:butt;stroke-linejoin:miter;stroke-miterlimit:4;stroke-dasharray:none;stroke-dashoffset:0;stroke-opacity:1;paint-order:stroke fill markers"
       d="m 93.925948,120.81534 c -0.17083,-0.14301 -0.122471,-0.46937 0.08782,-0.59267 0.524195,-0.30737 0.861425,0.12958 0.426895,0.55313 -0.149887,0.14609 -0.367463,0.16281 -0.514713,0.0395 z"
       id="path932"
       inkscape:connector-curvature="0" />
    <path
       style="opacity:1;fill:#ffffff;fill-opacity:1;fill-rule:nonzero;stroke:none;stroke-width:0.66500002;stroke-linecap:butt;stroke-linejoin:miter;stroke-miterlimit:4;stroke-dasharray:none;stroke-dashoffset:0;stroke-opacity:1;paint-order:stroke fill markers"
       d="m 103.09969,144.23497 c -0.2897,-0.59753 -0.68057,-0.98181 -1.2394,-1.2185 -0.59194,-0.25072 -0.59291,-0.3535 -0.006,-0.66565 0.63118,-0.33586 1.14385,-0.73231 1.44502,-1.11743 0.40943,-0.52356 0.62738,-0.52274 0.81555,0.003 0.11643,0.3253 0.98307,1.05696 1.34107,1.13217 0.13719,0.0288 0.26563,0.12289 0.31438,0.23022 0.10259,0.22588 -0.0936,0.42214 -0.6702,0.67039 -0.46327,0.19946 -0.98634,0.63058 -1.25602,1.03521 -0.29359,0.44049 -0.50651,0.42061 -0.74411,-0.0695 z"
       id="path934"
       inkscape:connector-curvature="0" />
    <path
       style="opacity:1;fill:#ffffff;fill-opacity:1;fill-rule:nonzero;stroke:none;stroke-width:0.66500002;stroke-linecap:butt;stroke-linejoin:miter;stroke-miterlimit:4;stroke-dasharray:none;stroke-dashoffset:0;stroke-opacity:1;paint-order:stroke fill markers"
       d="m 117.39115,157.39716 c -0.31281,-0.11594 -0.63686,-0.43736 -0.63686,-0.63168 0,-0.32049 0.497,-0.80605 0.96696,-0.94471 0.56993,-0.16815 1.1111,0.60528 0.84047,1.20118 -0.15941,0.35099 -0.73669,0.53603 -1.17057,0.37521 z"
       id="path936"
       inkscape:connector-curvature="0" />
    <path
       style="opacity:1;fill:#ffffff;fill-opacity:1;fill-rule:nonzero;stroke:none;stroke-width:0.66500002;stroke-linecap:butt;stroke-linejoin:miter;stroke-miterlimit:4;stroke-dasharray:none;stroke-dashoffset:0;stroke-opacity:1;paint-order:stroke fill markers"
       d="m 116.37699,153.7172 c -0.18311,-0.39947 0.13785,-0.74905 0.68773,-0.74905 0.40419,0 0.54842,0.0986 0.54842,0.37492 0,0.15116 -0.0706,0.23843 -0.27913,0.34485 -0.34236,0.17475 -0.88276,0.19128 -0.95702,0.0293 z"
       id="path938"
       inkscape:connector-curvature="0" />
    <path
       style="opacity:1;fill:#ffffff;fill-opacity:1;fill-rule:nonzero;stroke:none;stroke-width:0.66500002;stroke-linecap:butt;stroke-linejoin:miter;stroke-miterlimit:4;stroke-dasharray:none;stroke-dashoffset:0;stroke-opacity:1;paint-order:stroke fill markers"
       d="m 115.71938,150.87641 c -0.11701,-0.18304 -0.045,-0.46539 0.13339,-0.52268 0.0718,-0.0231 0.22675,-0.005 0.34428,0.0396 0.27093,0.10334 0.28257,0.36938 0.0228,0.52169 -0.25717,0.15079 -0.38575,0.14088 -0.50048,-0.0386 z"
       id="path940"
       inkscape:connector-curvature="0" />
    <path
       style="opacity:1;fill:#ffffff;fill-opacity:1;fill-rule:nonzero;stroke:none;stroke-width:0.66500002;stroke-linecap:butt;stroke-linejoin:miter;stroke-miterlimit:4;stroke-dasharray:none;stroke-dashoffset:0;stroke-opacity:1;paint-order:stroke fill markers"
       d="m 117.32543,161.61389 c -0.11218,-0.14829 -0.39165,-0.44401 -0.62104,-0.65715 -0.47571,-0.44202 -0.50278,-0.38536 0.39241,-0.82132 0.26011,-0.12668 0.522,-0.31805 0.58441,-0.42705 0.17299,-0.30215 0.53313,-0.21348 0.53313,0.13126 0,0.0928 0.15529,0.27604 0.38239,0.45128 0.67739,0.5227 0.72242,0.73523 0.19734,0.93125 -0.20076,0.075 -0.53293,0.25441 -0.73816,0.39881 -0.20522,0.14439 -0.40764,0.26253 -0.44982,0.26253 -0.0422,0 -0.16847,-0.12132 -0.28066,-0.26961 z"
       id="path942"
       inkscape:connector-curvature="0" />
    <path
       style="opacity:1;fill:#ffffff;fill-opacity:1;fill-rule:nonzero;stroke:none;stroke-width:0.66500002;stroke-linecap:butt;stroke-linejoin:miter;stroke-miterlimit:4;stroke-dasharray:none;stroke-dashoffset:0;stroke-opacity:1;paint-order:stroke fill markers"
       d="m 109.71169,158.58133 c 0,-0.13919 0.20969,-0.36463 0.33916,-0.36463 0.0381,0 0.11795,0.0491 0.17748,0.1092 0.0886,0.0894 0.0803,0.13507 -0.0457,0.25164 -0.2001,0.1851 -0.47091,0.18728 -0.47091,0.004 z"
       id="path944"
       inkscape:connector-curvature="0" />
    <path
       style="opacity:1;fill:#ffffff;fill-opacity:1;fill-rule:nonzero;stroke:none;stroke-width:2.51338577;stroke-linecap:butt;stroke-linejoin:miter;stroke-miterlimit:4;stroke-dasharray:none;stroke-dashoffset:0;stroke-opacity:1;paint-order:stroke fill markers"
       d=""
       id="path946"
       inkscape:connector-curvature="0"
       transform="scale(0.26458333)" />
    <path
       style="opacity:1;fill:#ffffff;fill-opacity:1;fill-rule:nonzero;stroke:none;stroke-width:0.66500002;stroke-linecap:butt;stroke-linejoin:miter;stroke-miterlimit:4;stroke-dasharray:none;stroke-dashoffset:0;stroke-opacity:1;paint-order:stroke fill markers"
       d="m 106.27406,162.85216 c -0.30802,-0.27448 -0.27858,-0.64343 0.0723,-0.90587 0.34888,-0.26095 0.68893,-0.26764 1.03986,-0.0204 0.42043,0.29615 0.35171,0.80602 -0.13806,1.02439 -0.32537,0.14507 -0.74909,0.10241 -0.97407,-0.0981 z"
       id="path948"
       inkscape:connector-curvature="0" />
    <path
       style="opacity:1;fill:#ffffff;fill-opacity:1;fill-rule:nonzero;stroke:none;stroke-width:0.66500002;stroke-linecap:butt;stroke-linejoin:miter;stroke-miterlimit:4;stroke-dasharray:none;stroke-dashoffset:0;stroke-opacity:1;paint-order:stroke fill markers"
       d="m 103.01182,164.56808 c -0.42536,-0.29962 -0.47226,-0.48861 -0.21314,-0.85877 0.12064,-0.17231 0.29288,-0.34625 0.38276,-0.38652 0.34556,-0.15482 1.03809,-0.0453 1.26003,0.19922 0.0614,0.0677 0.11286,0.27917 0.11436,0.47004 0.002,0.28938 -0.039,0.38197 -0.24832,0.55721 -0.34444,0.28835 -0.90157,0.29644 -1.29569,0.0188 z"
       id="path950"
       inkscape:connector-curvature="0" />
    <path
       style="opacity:1;fill:#d40000;fill-opacity:1;fill-rule:nonzero;stroke:none;stroke-width:0.66500002;stroke-linecap:butt;stroke-linejoin:miter;stroke-miterlimit:4;stroke-dasharray:none;stroke-dashoffset:0;stroke-opacity:1;paint-order:stroke fill markers"
       d="m 92.348281,156.38987 c 0,-0.0654 0.41017,-1.57667 0.911491,-3.35839 0.501321,-1.78173 1.00875,-3.7259 1.127623,-4.32037 0.388375,-1.94223 0.906642,-1.72142 0.906044,0.38602 -7.84e-4,2.39347 -0.309327,4.15281 -0.90747,5.17271 -0.838224,1.42925 -2.037688,2.67719 -2.037688,2.12003 z"
       id="path952"
       inkscape:connector-curvature="0" />
    <path
       style="opacity:1;fill:#000000;fill-opacity:1;fill-rule:nonzero;stroke:none;stroke-width:2.51338577;stroke-linecap:butt;stroke-linejoin:miter;stroke-miterlimit:4;stroke-dasharray:none;stroke-dashoffset:0;stroke-opacity:1;paint-order:stroke fill markers"
       d="m 175.99653,714.01415 c 0.21918,-10.13109 0.6115,-19.28854 0.87182,-20.34989 l 0.47332,-1.92974 13.42631,0.0442 c 23.57372,0.0775 27.16952,0.83596 30.20172,6.37028 2.10767,3.84686 1.19178,5.75712 -6.03946,12.59642 l -6.37452,6.02903 4.53166,5.1985 c 5.50995,6.32075 7.15929,8.76538 6.56385,9.72883 -1.38636,2.24318 -7.4937,-0.49377 -14.0841,-6.31165 -2.60632,-2.30081 -5.24453,-4.21832 -5.86268,-4.26113 -0.61815,-0.0428 -3.25539,-0.0145 -5.86053,0.063 -7.51632,0.22347 -6.43937,-1.76023 4.73662,-8.72466 7.39098,-4.60576 11.28447,-8.12183 11.76245,-10.62225 0.51234,-2.68011 -2.35121,-5.65583 -6.67957,-6.94122 -3.631,-1.07829 -11.92556,-1.4148 -15.79541,-0.64083 l -2.11646,0.42329 -0.25478,17.71712 c -0.19648,13.66222 -0.47453,17.98191 -1.21493,18.87403 -0.6791,0.81827 -2.09053,1.1569 -4.82198,1.1569 h -3.86185 z"
       id="path954"
       inkscape:connector-curvature="0"
       transform="scale(0.26458333)" />
    <path
       style="opacity:1;fill:#000000;fill-opacity:1;fill-rule:nonzero;stroke:none;stroke-width:2.51338577;stroke-linecap:butt;stroke-linejoin:miter;stroke-miterlimit:4;stroke-dasharray:none;stroke-dashoffset:0;stroke-opacity:1;paint-order:stroke fill markers"
       d="m 241.26212,732.12592 c -5.58548,-1.74647 -11.30298,-6.47705 -12.89763,-10.67131 -1.24399,-3.27194 2.04564,-26.71426 4.02679,-28.69541 0.63718,-0.63719 2.4125,-1.02468 4.69461,-1.02468 h 3.66994 l -1.30365,10.35038 c -1.69095,13.42538 -1.39253,19.60332 1.1051,22.87788 2.11708,2.77564 6.96755,5.36638 10.04713,5.36638 3.345,0 8.53006,-2.06821 10.74966,-4.28782 3.36467,-3.36467 3.93585,-8.01693 2.53733,-20.66684 -0.64374,-5.82279 -1.35007,-11.27384 -1.56963,-12.11344 -0.37965,-1.45179 -0.17617,-1.52654 4.15611,-1.52654 h 4.55531 l 0.47927,2.2806 c 2.61423,12.43983 3.37977,24.79434 1.79471,28.96337 -2.45382,6.45403 -11.11353,10.17512 -23.50103,10.09843 -3.08757,-0.0191 -6.93238,-0.44707 -8.54402,-0.951 z"
       id="path956"
       inkscape:connector-curvature="0"
       transform="scale(0.26458333)" />
    <path
       style="opacity:1;fill:#000000;fill-opacity:1;fill-rule:nonzero;stroke:none;stroke-width:2.51338577;stroke-linecap:butt;stroke-linejoin:miter;stroke-miterlimit:4;stroke-dasharray:none;stroke-dashoffset:0;stroke-opacity:1;paint-order:stroke fill markers"
       d="m 290.78905,732.40445 c -6.84728,-0.7091 -10.0057,-1.68444 -9.57483,-2.95676 0.32208,-0.95109 1.96416,-0.96654 15.62218,-0.147 l 8.43561,0.50618 2.28144,-1.91971 c 1.2548,-1.05583 2.58897,-2.49431 2.96483,-3.19661 1.25639,-2.34759 -2.23991,-5.22733 -12.48401,-10.2825 -6.15901,-3.03929 -10.66639,-5.77828 -12.67303,-7.70098 -2.98325,-2.85845 -3.09892,-3.12037 -2.74901,-6.22473 0.4694,-4.16455 3.12157,-7.01897 7.8173,-8.41345 4.17317,-1.2393 17.33196,-1.39372 21.84866,-0.2564 3.00734,0.75725 5.16592,2.33918 4.33106,3.17404 -0.22616,0.22616 -4.1394,0.016 -8.69607,-0.46697 -9.31795,-0.98769 -15.24602,-0.26111 -17.41387,2.13433 -2.45589,2.71374 0.002,4.61264 13.67426,10.56317 9.53334,4.14925 16.32734,8.17986 17.50867,10.3872 2.78141,5.19711 -1.24167,11.56157 -8.7335,13.81628 -4.20048,1.26416 -14.87635,1.73818 -22.15969,0.98391 z"
       id="path958"
       inkscape:connector-curvature="0"
       transform="scale(0.26458333)" />
    <path
       style="opacity:1;fill:#000000;fill-opacity:1;fill-rule:nonzero;stroke:none;stroke-width:2.51338577;stroke-linecap:butt;stroke-linejoin:miter;stroke-miterlimit:4;stroke-dasharray:none;stroke-dashoffset:0;stroke-opacity:1;paint-order:stroke fill markers"
       d="m 332.23448,731.82954 c -1.36392,-0.29065 -2.86384,-0.76577 -3.33317,-1.05583 -2.38471,-1.47383 0.007,-1.84799 11.81116,-1.84799 h 12.66448 l 1.7208,-1.85677 c 3.82715,-4.12957 2.21193,-5.93571 -11.53439,-12.89774 -13.74035,-6.95901 -17.25149,-11.42833 -13.31799,-16.95242 4.25328,-5.97318 10.19885,-7.62376 22.50352,-6.24731 7.38665,0.8263 10.38514,1.81404 10.38514,3.42098 0,0.82962 -0.71449,0.94397 -3.68404,0.58961 -2.02622,-0.24179 -6.84177,-0.63107 -10.70124,-0.86506 -6.61331,-0.40095 -7.15856,-0.32869 -9.47323,1.25544 -1.8752,1.28337 -2.45602,2.17212 -2.45602,3.75809 0,1.81554 0.48619,2.3209 3.85947,4.01167 2.1227,1.06395 7.10955,3.18744 11.08189,4.71888 8.90807,3.43428 14.34234,6.93215 15.91343,10.24298 2.11382,4.45456 -0.29799,9.66189 -5.68215,12.26832 -3.08264,1.49228 -4.44874,1.65374 -15.331,1.81193 -6.57074,0.0955 -13.06273,-0.0641 -14.42666,-0.35478 z"
       id="path960"
       inkscape:connector-curvature="0"
       transform="scale(0.26458333)" />
    <path
       style="opacity:1;fill:#000000;fill-opacity:1;fill-rule:nonzero;stroke:none;stroke-width:2.51338577;stroke-linecap:butt;stroke-linejoin:miter;stroke-miterlimit:4;stroke-dasharray:none;stroke-dashoffset:0;stroke-opacity:1;paint-order:stroke fill markers"
       d="m 377.87016,712.08442 v -20.3499 h 4.56118 4.56119 v 20.3499 20.3499 h -4.56119 -4.56118 z"
       id="path962"
       inkscape:connector-curvature="0"
       transform="scale(0.26458333)" />
    <path
       style="opacity:1;fill:#000000;fill-opacity:1;fill-rule:nonzero;stroke:none;stroke-width:2.51338577;stroke-linecap:butt;stroke-linejoin:miter;stroke-miterlimit:4;stroke-dasharray:none;stroke-dashoffset:0;stroke-opacity:1;paint-order:stroke fill markers"
       d="m 397.29876,731.16791 c -2.62248,-2.73728 -2.41686,-5.31243 0.94511,-11.83627 5.1601,-10.01306 17.3168,-24.58409 22.23328,-26.64882 1.24193,-0.52156 3.76812,-0.94264 5.61376,-0.93574 l 3.35572,0.0126 4.18187,9.98696 c 2.30003,5.49283 6.33852,14.36912 8.97442,19.72509 2.63591,5.35597 4.68781,9.84287 4.55978,9.97089 -0.12802,0.12803 -2.44066,0.0477 -5.1392,-0.17856 l -4.90644,-0.41134 -5.20965,-10.87694 c -5.85117,-12.21634 -10.92397,-21.22401 -11.95261,-21.22401 -2.42167,0 -12.61237,18.00905 -12.61237,22.28864 0,5.55176 1.85148,6.1006 11.26357,3.33889 3.26072,-0.95677 6.8459,-1.74621 7.96707,-1.7543 1.95486,-0.0141 1.98924,0.0397 0.83798,1.31183 -3.32651,3.67574 -18.0579,9.19925 -24.53475,9.19925 -3.12904,0 -3.97945,-0.30008 -5.57754,-1.96813 z"
       id="path964"
       inkscape:connector-curvature="0"
       transform="scale(0.26458333)" />
    <path
       style="opacity:1;fill:#000000;fill-opacity:1;fill-rule:nonzero;stroke:none;stroke-width:2.51338577;stroke-linecap:butt;stroke-linejoin:miter;stroke-miterlimit:4;stroke-dasharray:none;stroke-dashoffset:0;stroke-opacity:1;paint-order:stroke fill markers"
       d="m 463.65551,731.96958 c -0.48244,-0.19466 -0.87715,-0.62926 -0.87715,-0.96576 0,-0.33651 4.97344,-4.68219 11.0521,-9.65707 12.93812,-10.5888 16.05443,-13.82614 16.71895,-17.36831 1.00985,-5.38295 -4.00457,-10.13875 -10.69008,-10.13875 -5.6278,0 -11.46721,4.90778 -11.46721,9.63771 0,2.33745 -2.63918,2.15148 -3.2364,-0.22806 -0.57422,-2.28788 0.79205,-6.96531 2.54726,-8.72051 2.47736,-2.47736 8.61479,-3.69887 16.77484,-3.33864 11.04806,0.48773 15.74239,3.02698 17.96458,9.71738 0.98384,2.96206 0.99188,3.60801 0.0723,5.80893 -0.56906,1.36196 -2.37826,3.93393 -4.02044,5.71549 -3.09497,3.35764 -13.30906,10.57133 -17.29571,12.21508 -4.59521,1.89466 -2.94126,2.47029 10.26007,3.57088 9.58896,0.79943 12.01956,1.24526 12.01956,2.20465 0,1.57912 -4.66766,2.00837 -21.27273,1.95632 -9.72002,-0.0305 -18.06748,-0.21467 -18.54991,-0.40934 z"
       id="path966"
       inkscape:connector-curvature="0"
       transform="scale(0.26458333)" />
    <path
       style="opacity:1;fill:#000000;fill-opacity:1;fill-rule:nonzero;stroke:none;stroke-width:2.51338577;stroke-linecap:butt;stroke-linejoin:miter;stroke-miterlimit:4;stroke-dasharray:none;stroke-dashoffset:0;stroke-opacity:1;paint-order:stroke fill markers"
       d="m 523.47719,732.19852 c -4.82511,-1.25969 -7.47779,-2.76414 -10.06064,-5.70585 -2.89959,-3.30245 -3.16211,-4.64493 -2.72288,-13.92423 0.45449,-9.60152 1.40086,-12.62429 5.12094,-16.35656 4.26228,-4.27626 9.61424,-6.14925 17.48667,-6.11972 10.72478,0.0402 16.85321,3.44564 20.63523,11.46645 1.64311,3.48469 1.81983,4.67717 1.81983,12.28011 0,6.74588 -0.24813,8.87483 -1.24758,10.70424 -1.51858,2.77963 -5.52236,5.527 -10.08728,6.92184 -4.77113,1.45785 -16.58525,1.87172 -20.94429,0.73372 z m 14.79129,-3.90178 c 5.66286,-2.57194 7.59457,-7.02261 7.21187,-16.61617 -0.45635,-11.43985 -5.63379,-18.41237 -13.13676,-17.69143 -1.90789,0.18333 -4.35405,0.99114 -5.52406,1.82427 -5.84374,4.16111 -8.29296,22.6875 -3.82089,28.90198 1.70051,2.36307 6.87421,4.91557 9.92504,4.89664 1.36552,-0.008 3.77068,-0.60036 5.3448,-1.31529 z"
       id="path968"
       inkscape:connector-curvature="0"
       transform="scale(0.26458333)" />
    <path
       style="opacity:1;fill:#000000;fill-opacity:1;fill-rule:nonzero;stroke:none;stroke-width:2.51338577;stroke-linecap:butt;stroke-linejoin:miter;stroke-miterlimit:4;stroke-dasharray:none;stroke-dashoffset:0;stroke-opacity:1;paint-order:stroke fill markers"
       d="m 569.08675,731.02719 c -0.48997,-0.79279 -1.40411,-9.4176 -2.37008,-22.36145 -0.52642,-7.05387 -0.92391,-9.05493 -2.12008,-10.67282 -0.8097,-1.09519 -1.47218,-2.2974 -1.47218,-2.67159 0,-1.36479 11.20542,-3.84282 12.32306,-2.72518 0.72225,0.72225 1.85195,22.72737 1.55292,30.24905 -0.2207,5.5512 -0.57151,7.77344 -1.29993,8.23447 -1.35613,0.85832 -6.07394,0.82088 -6.61371,-0.0525 z"
       id="path970"
       inkscape:connector-curvature="0"
       transform="scale(0.26458333)" />
    <path
       style="opacity:1;fill:#000000;fill-opacity:1;fill-rule:nonzero;stroke:none;stroke-width:2.51338577;stroke-linecap:butt;stroke-linejoin:miter;stroke-miterlimit:4;stroke-dasharray:none;stroke-dashoffset:0;stroke-opacity:1;paint-order:stroke fill markers"
       d="m 596.26678,732.0481 c -8.03137,-2.16225 -10.68731,-4.78081 -10.68731,-10.53689 0,-3.66786 0.0553,-3.76471 4.21032,-7.37867 2.31568,-2.01412 4.21032,-4.03939 4.21032,-4.50062 0,-0.46122 -0.6202,-1.39986 -1.37822,-2.08586 -0.75802,-0.686 -1.90107,-2.61633 -2.5401,-4.28962 -1.10668,-2.89779 -1.09675,-3.16878 0.20896,-5.70326 0.80536,-1.56328 2.5073,-3.29554 4.12588,-4.1994 5.37834,-3.0034 16.65871,-3.65289 21.38956,-1.23155 0.99387,0.50868 2.96746,2.20933 4.38575,3.77921 3.47172,3.84278 3.41611,6.00773 -0.26353,10.25922 -1.56323,1.80618 -2.74707,3.77816 -2.63075,4.38218 0.11633,0.60402 1.76841,1.90847 3.6713,2.89877 4.33886,2.25804 6.3127,4.86518 6.21781,8.21276 -0.1265,4.46266 -4.3338,8.46414 -10.97237,10.43558 -4.42699,1.31468 -14.9913,1.29251 -19.94762,-0.0419 z m 15.91512,-2.73897 c 3.24034,-1.67564 4.47017,-6.32188 2.82907,-10.68811 -0.40837,-1.08648 -1.9617,-3.23851 -3.45186,-4.7823 l -2.70938,-2.80688 2.75014,-4.51296 c 3.06734,-5.03348 3.28226,-6.29894 1.56383,-9.20801 -1.465,-2.48005 -4.52853,-3.82883 -8.5113,-3.74724 -4.42265,0.0906 -6.10177,2.01436 -6.05449,6.93666 0.0308,3.20799 0.39218,4.25447 2.28059,6.60435 2.66681,3.31848 2.81801,4.74833 0.60856,5.75502 -2.47736,1.12876 -5.38178,6.07484 -5.38178,9.1649 0,3.2107 3.20637,7.25167 6.56221,8.27033 2.64777,0.80372 6.90736,0.3624 9.51441,-0.98576 z"
       id="path972"
       inkscape:connector-curvature="0"
       transform="scale(0.26458333)" />
    <path
       style="opacity:1;fill:#000000;fill-opacity:1;fill-rule:nonzero;stroke:none;stroke-width:2.51338577;stroke-linecap:butt;stroke-linejoin:miter;stroke-miterlimit:4;stroke-dasharray:none;stroke-dashoffset:0;stroke-opacity:1;paint-order:stroke fill markers"
       d="m 274.45779,674.01608 c -0.23272,-0.86838 -0.42743,-4.81556 -0.4327,-8.77151 l -0.01,-7.19264 4.73661,0.083 c 9.17252,0.16077 11.19291,1.50051 5.25727,3.48615 -3.8705,1.29479 -4.28785,2.76923 -1.04695,3.69871 2.74269,0.78659 2.91614,2.10742 0.48587,3.6998 -0.9871,0.64677 -2.4145,2.39081 -3.172,3.87564 -1.1134,2.18244 -1.76221,2.69969 -3.38634,2.69969 -1.49028,0 -2.11832,-0.40769 -2.43218,-1.57887 z"
       id="path974"
       inkscape:connector-curvature="0"
       transform="scale(0.26458333)" />
    <path
       style="opacity:1;fill:#000000;fill-opacity:1;fill-rule:nonzero;stroke:none;stroke-width:2.51338577;stroke-linecap:butt;stroke-linejoin:miter;stroke-miterlimit:4;stroke-dasharray:none;stroke-dashoffset:0;stroke-opacity:1;paint-order:stroke fill markers"
       d="m 294.39009,674.93936 c -0.77554,-1.44911 -1.01305,-13.9205 -0.30047,-15.77745 0.23427,-0.61049 1.14476,-1.10998 2.02332,-1.10998 2.05176,0 2.44103,1.4827 2.45321,9.34393 0.01,6.35612 -0.68958,8.90081 -2.44644,8.90081 -0.55177,0 -1.33009,-0.61079 -1.72962,-1.35731 z"
       id="path976"
       inkscape:connector-curvature="0"
       transform="scale(0.26458333)" />
    <path
       style="opacity:1;fill:#000000;fill-opacity:1;fill-rule:nonzero;stroke:none;stroke-width:2.51338577;stroke-linecap:butt;stroke-linejoin:miter;stroke-miterlimit:4;stroke-dasharray:none;stroke-dashoffset:0;stroke-opacity:1;paint-order:stroke fill markers"
       d="m 306.47008,675.83193 c -0.63562,-0.25647 -0.87715,-2.75312 -0.87715,-9.06696 v -8.71304 l 6.49092,0.0108 c 8.63653,0.0143 9.7603,0.77671 4.61613,3.13179 -4.4287,2.02752 -6.25935,3.65581 -4.69516,4.17614 0.5259,0.17495 1.56156,0.41551 2.30147,0.5346 2.14265,0.34484 2.01467,1.53833 -0.45132,4.20888 -1.26357,1.3684 -2.98401,3.31928 -3.82318,4.33529 -1.53866,1.86289 -1.96305,2.02763 -3.56171,1.38255 z"
       id="path978"
       inkscape:connector-curvature="0"
       transform="scale(0.26458333)" />
    <path
       style="opacity:1;fill:#000000;fill-opacity:1;fill-rule:nonzero;stroke:none;stroke-width:2.51338577;stroke-linecap:butt;stroke-linejoin:miter;stroke-miterlimit:4;stroke-dasharray:none;stroke-dashoffset:0;stroke-opacity:1;paint-order:stroke fill markers"
       d="m 320.39233,675.32031 c -0.84917,-1.02318 0.6777,-5.91152 4.13559,-13.24032 1.73331,-3.67364 3.83226,-4.75054 6.70658,-3.44091 1.79313,0.817 5.24359,7.0051 7.39858,13.26869 l 1.26857,3.68718 h -1.49883 c -0.82436,0 -3.35302,-0.38298 -5.61925,-0.85106 -3.56066,-0.73544 -4.58013,-0.68778 -7.50449,0.35086 -4.07128,1.44599 -3.88117,1.43722 -4.88675,0.22556 z m 10.60204,-6.41763 c 0.66435,-1.45809 0.60451,-1.98683 -0.33069,-2.92203 -0.94225,-0.94226 -1.33192,-0.98403 -2.22961,-0.23902 -1.29892,1.07801 -1.41022,2.93472 -0.24573,4.09921 1.25428,1.25428 1.90643,1.03624 2.80603,-0.93816 z"
       id="path980"
       inkscape:connector-curvature="0"
       transform="scale(0.26458333)" />
    <path
       style="opacity:1;fill:#000000;fill-opacity:1;fill-rule:nonzero;stroke:none;stroke-width:2.51338577;stroke-linecap:butt;stroke-linejoin:miter;stroke-miterlimit:4;stroke-dasharray:none;stroke-dashoffset:0;stroke-opacity:1;paint-order:stroke fill markers"
       d="m 353.30994,666.89852 c 0,-0.15168 0.49006,-0.46384 1.08902,-0.69368 0.62448,-0.23964 0.90615,-0.122 0.66031,0.27578 -0.41209,0.66678 -1.74933,0.98623 -1.74933,0.4179 z"
       id="path982"
       inkscape:connector-curvature="0"
       transform="scale(0.26458333)" />
    <path
       style="opacity:1;fill:#000000;fill-opacity:1;fill-rule:nonzero;stroke:none;stroke-width:2.51338577;stroke-linecap:butt;stroke-linejoin:miter;stroke-miterlimit:4;stroke-dasharray:none;stroke-dashoffset:0;stroke-opacity:1;paint-order:stroke fill markers"
       d="m 365.41704,675.71972 c -0.4811,-0.30551 -1.36172,-2.19532 -1.95692,-4.19958 -1.40628,-4.73546 -2.69326,-4.67841 -4.85751,0.21535 -1.6616,3.75717 -1.78178,3.85946 -4.53432,3.85946 -3.39342,0 -4.20119,-1.21252 -5.93574,-8.91003 -1.36471,-6.05621 -1.44281,-8.63672 -0.26095,-8.62224 1.85608,0.0227 3.02194,1.46964 4.06697,5.04737 0.6445,2.20646 1.48471,3.71339 2.07047,3.71339 0.54857,0 1.63904,-1.71177 2.45864,-3.85946 1.44186,-3.7783 1.53114,-3.85947 4.24502,-3.85947 2.68028,0 2.83703,0.13378 4.72786,4.0349 1.07563,2.21919 2.20808,4.03489 2.51657,4.03489 0.30849,0 1.37882,-1.89565 2.37851,-4.21256 2.18356,-5.06065 3.65134,-5.89727 5.74335,-3.27364 0.82117,1.02984 1.70397,1.87244 1.9618,1.87244 0.25782,0 1.63206,-0.78944 3.05387,-1.7543 2.97583,-2.01946 7.99124,-2.36446 11.72056,-0.80625 2.55449,1.06733 6.80828,5.5581 6.80828,7.18756 0,0.58827 0.31577,0.87442 0.70172,0.63589 0.38595,-0.23853 0.70172,-0.0993 0.70172,0.30945 0,0.40872 -0.28458,0.74313 -0.63241,0.74313 -0.34782,0 -1.27078,1.08197 -2.05102,2.40437 -1.73039,2.9328 -4.08755,4.54903 -7.87578,5.40019 -6.07082,1.36402 -10.86165,-1.70369 -13.14324,-8.41599 l -1.25931,-3.70483 -2.34687,5.34025 c -2.86357,6.51601 -5.44277,8.63489 -8.30127,6.81971 z m 26.12072,-4.38288 c 2.18689,-2.14788 1.89555,-6.68136 -0.56542,-8.7982 -3.71842,-3.19845 -7.38434,-1.32574 -7.99407,4.08371 -0.32104,2.84826 -0.13372,3.48497 1.5083,5.12699 2.12644,2.12644 4.61433,1.98089 7.05119,-0.4125 z"
       id="path984"
       inkscape:connector-curvature="0"
       transform="scale(0.26458333)" />
    <path
       style="opacity:1;fill:#000000;fill-opacity:1;fill-rule:nonzero;stroke:none;stroke-width:2.51338577;stroke-linecap:butt;stroke-linejoin:miter;stroke-miterlimit:4;stroke-dasharray:none;stroke-dashoffset:0;stroke-opacity:1;paint-order:stroke fill markers"
       d="m 403.21761,675.39977 c -0.43298,-0.43298 -0.78723,-1.49865 -0.78723,-2.36817 0,-0.86952 -0.36629,-2.38487 -0.81399,-3.36745 -0.62833,-1.37904 -0.60147,-2.70699 0.11778,-5.82221 0.51247,-2.21964 1.2332,-4.43042 1.60163,-4.91286 0.80871,-1.05896 8.70648,-1.18988 11.34159,-0.18801 2.39516,0.91064 2.91548,2.55716 3.38568,10.71382 0.47199,8.18763 0.0723,8.46068 -5.18535,3.54273 -3.93744,-3.68301 -5.36888,-3.61581 -6.38349,0.29971 -0.61663,2.37967 -2.06808,3.31098 -3.27662,2.10244 z m 8.89777,-11.86216 c 0.12435,-0.65612 -0.45493,-1.54388 -1.30388,-1.99823 -1.22455,-0.65536 -1.73928,-0.60593 -2.59432,0.2491 -0.58888,0.58889 -0.86831,1.58357 -0.62384,2.22066 0.58799,1.53227 4.21392,1.15418 4.52204,-0.47153 z"
       id="path986"
       inkscape:connector-curvature="0"
       transform="scale(0.26458333)" />
    <path
       style="opacity:1;fill:#000000;fill-opacity:1;fill-rule:nonzero;stroke:none;stroke-width:2.51338577;stroke-linecap:butt;stroke-linejoin:miter;stroke-miterlimit:4;stroke-dasharray:none;stroke-dashoffset:0;stroke-opacity:1;paint-order:stroke fill markers"
       d="m 423.482,668.28427 c 0,-8.55103 0.29653,-10.23234 1.80469,-10.23234 1.42827,0 2.27526,2.07637 3.18571,7.80967 0.45174,2.84469 1.10718,5.48794 1.45655,5.87389 0.34936,0.38594 2.06055,1.01749 3.80264,1.40344 6.05285,1.34096 3.32768,2.97107 -5.16211,3.08779 l -5.08748,0.0699 z"
       id="path988"
       inkscape:connector-curvature="0"
       transform="scale(0.26458333)" />
    <path
       style="opacity:1;fill:#000000;fill-opacity:1;fill-rule:nonzero;stroke:none;stroke-width:2.51338577;stroke-linecap:butt;stroke-linejoin:miter;stroke-miterlimit:4;stroke-dasharray:none;stroke-dashoffset:0;stroke-opacity:1;paint-order:stroke fill markers"
       d="m 442.69183,675.64716 c -1.90637,-0.82299 -2.6339,-5.23883 -1.97118,-11.96436 l 0.48274,-4.89901 2.45003,-0.45963 c 3.45471,-0.64811 10.97266,0.16936 13.47951,1.4657 4.06282,2.10097 5.48367,7.88003 2.84759,11.58206 -0.76691,1.07703 -2.6406,2.45688 -4.16376,3.06632 -3.41922,1.3681 -11.11435,2.07689 -13.12493,1.20892 z m 8.37884,-2.94678 c 6.04358,-3.11264 6.24896,-8.75033 0.40692,-11.17018 -2.05997,-0.85327 -2.33589,-0.8 -3.53655,0.68275 -1.68419,2.07989 -1.81134,8.56235 -0.19955,10.17413 1.31518,1.31519 1.37327,1.32066 3.32918,0.3133 z"
       id="path990"
       inkscape:connector-curvature="0"
       transform="scale(0.26458333)" />
    <path
       style="opacity:1;fill:#000000;fill-opacity:1;fill-rule:nonzero;stroke:none;stroke-width:2.51338577;stroke-linecap:butt;stroke-linejoin:miter;stroke-miterlimit:4;stroke-dasharray:none;stroke-dashoffset:0;stroke-opacity:1;paint-order:stroke fill markers"
       d="m 473.83544,673.82726 c -3.14613,-2.13785 -4.03988,-3.67171 -4.03988,-6.93327 0,-4.52693 5.53375,-8.85165 11.30895,-8.83814 2.68551,0.006 7.00861,1.41571 6.56148,2.13919 -0.22563,0.36508 -1.73364,0.66427 -3.35114,0.66487 -5.88304,0.002 -9.74887,3.56041 -8.6453,7.95739 0.5682,2.26389 3.28841,3.74157 8.05069,4.3733 6.17967,0.81977 4.24042,2.40435 -2.94251,2.40435 -3.48279,0 -4.85513,-0.34943 -6.94229,-1.76769 z"
       id="path992"
       inkscape:connector-curvature="0"
       transform="scale(0.26458333)" />
    <path
       style="opacity:1;fill:#000000;fill-opacity:1;fill-rule:nonzero;stroke:none;stroke-width:2.51338577;stroke-linecap:butt;stroke-linejoin:miter;stroke-miterlimit:4;stroke-dasharray:none;stroke-dashoffset:0;stroke-opacity:1;paint-order:stroke fill markers"
       d="m 497.29225,675.61746 c -1.27954,-0.31115 -3.09524,-1.28798 -4.03489,-2.17074 -1.53857,-1.44542 -1.70846,-2.17262 -1.70846,-7.3132 0,-9.85253 3.27848,-11.07524 4.81119,-1.79434 1.11036,6.72347 1.99078,8.44889 4.31118,8.44889 2.29689,0 3.19555,-1.71755 4.20507,-8.03692 0.88696,-5.55214 1.35468,-6.83329 2.3723,-6.49803 1.77905,0.58613 2.61952,3.67325 2.27577,8.35914 -0.37135,5.0622 -1.16831,7.17967 -3.08003,8.1834 -1.93388,1.01537 -6.62421,1.43653 -9.15213,0.8218 z"
       id="path994"
       inkscape:connector-curvature="0"
       transform="scale(0.26458333)" />
    <path
       style="opacity:1;fill:#000000;fill-opacity:1;fill-rule:nonzero;stroke:none;stroke-width:2.51338577;stroke-linecap:butt;stroke-linejoin:miter;stroke-miterlimit:4;stroke-dasharray:none;stroke-dashoffset:0;stroke-opacity:1;paint-order:stroke fill markers"
       d="m 515.18812,675.84348 c -0.26534,-0.26534 -0.48244,-4.42233 -0.48244,-9.23776 v -8.75532 l 4.96608,0.46155 c 11.1332,1.03472 12.93686,6.0754 3.95711,11.05891 -2.46489,1.36794 -4.73857,3.23156 -5.39428,4.42141 -1.18863,2.1569 -2.23575,2.86193 -3.04647,2.05121 z m 7.62866,-10.38238 c 1.88769,-1.40175 0.54838,-3.5497 -2.21334,-3.5497 -2.25337,0 -3.0998,1.8068 -1.65946,3.54231 1.06843,1.28738 2.14631,1.28944 3.8728,0.007 z"
       id="path996"
       inkscape:connector-curvature="0"
       transform="scale(0.26458333)" />
  </g>
</svg>
